<svg id="Capa_1" enable-background="new 0 0 512 512" height="20" viewBox="0 0 512 512" width="20" xmlns="http://www.w3.org/2000/svg"><path d="m51.172 29.316c3.727-9.415 11.899-16.362 21.794-18.515 23.514-5.115 69.247-8.905 105.105 25.754l-117.618 120.965s-39.188-52.646-9.281-128.204z" fill="#ff82b3"/><path d="m216.721 504.498h-80.944c0-48.842 40.038-82.002 40.038-82.002h160.37s40.038 33.16 40.038 82.002h-80.944l-39.279-19.64z" fill="#ff82b3"/><path d="m195.815 422.496h-20s-40.038 33.16-40.038 82.002h20c0-48.842 40.038-82.002 40.038-82.002z" fill="#ff5d9c"/><path d="m460.828 29.316c-3.727-9.415-11.899-16.362-21.794-18.515-23.514-5.115-69.247-8.905-105.105 25.754l117.618 120.965s39.188-52.646 9.281-128.204z" fill="#ff82b3"/><path d="m467.813 120.169c-11.139-21.424-25.61-41.254-43.175-58.818-18.301-18.301-39.052-33.261-61.513-44.574-10.021 4.461-19.938 10.831-29.195 19.778l117.617 120.965s10.251-13.78 16.266-37.351z" fill="#ff5d9c"/><path d="m44.187 120.169c6.015 23.57 16.266 37.351 16.266 37.351l117.617-120.964c-9.257-8.948-19.174-15.317-29.195-19.778-22.462 11.313-43.213 26.273-61.513 44.574-17.564 17.563-32.035 37.393-43.175 58.817z" fill="#ff5d9c"/><path d="m421.524 138.656s-.099.126-.277.38c1.164-1.66 26.215-38.423 5.962-92.59-5.268-1.026-11.833-1.911-19.062-2.003-19.202-.247-37.964 5.726-51.934 19.229z" fill="#e6e6e6"/><path d="m90.476 138.656s.099.126.277.38c-1.164-1.66-26.215-38.423-5.962-92.59 5.268-1.026 11.833-1.911 19.062-2.003 19.202-.247 37.964 5.726 51.934 19.229z" fill="#e6e6e6"/><g fill="#c5c3c9"><path d="m421.524 138.656-.01-.012c-.125.188-.218.323-.267.392.178-.253.277-.38.277-.38z"/><path d="m433.718 70.954c-2.932-3.268-5.952-6.475-9.08-9.603-5.996-5.997-12.263-11.623-18.76-16.891-18.404.237-36.246 6.242-49.664 19.212l65.3 74.972c2.418-3.628 18.25-29.199 12.204-67.69z"/><path d="m90.753 139.037c-.048-.069-.141-.204-.266-.392l-.01.012c-.001-.001.098.126.276.38z"/><path d="m78.282 70.954c-6.046 38.49 9.786 64.062 12.204 67.69l65.3-74.972c-13.419-12.97-31.26-18.975-49.665-19.212-6.497 5.269-12.764 10.895-18.76 16.891-3.127 3.128-6.148 6.335-9.079 9.603z"/></g><circle cx="256" cy="229.989" fill="#ffaacb" r="208.49"/><path d="m406.378 172.018c8.495 15.941 13.196 35.137 13.196 57.975 0 90.187-73.377 163.564-163.574 163.564s-163.574-73.376-163.574-163.563c0-22.839 4.702-42.034 13.196-57.975l58.131-24.54h185.257z" fill="#ffdcce"/><path d="m122.425 229.994c0-22.839 4.702-42.034 13.196-57.975 3.441-6.462 7.519-12.376 12.144-17.792 0 0-42.144 17.792-42.144 17.792-2.467 4.629-4.603 9.542-6.408 14.731-4.41 12.676-6.788 27.038-6.788 43.244 0 45.094 18.344 85.984 47.963 115.603 29.619 29.618 70.513 47.962 115.611 47.962.026 0 .052-.001.078-.001 3.756 0 7.495-.142 11.241-.397 1.225-.085 2.446-.184 3.68-.296-83.19-7.601-148.573-77.742-148.573-162.871z" fill="#ffcabd"/><path d="m406.378 172.018-14.474 6.628c-17.059 7.806-36.664 7.806-53.713 0l-.819-.379c-17.049-7.806-36.654-7.806-53.703 0l-.818.379c-17.049 7.806-36.654 7.806-53.703 0l-.818-.379c-17.049-7.806-36.654-7.806-53.703 0-.279.13-.549.25-.819.379-17.049 7.806-36.654 7.806-53.713 0l-14.474-6.628c25.035-47.015 83.02-65.671 150.378-65.671s125.345 18.656 150.379 65.671z" fill="#d97c40"/><path d="m105.622 172.018 14.474 6.628c3.482 1.593 7.073 2.843 10.724 3.786 1.434-3.612 3.03-7.088 4.803-10.414 23.155-43.484 74.504-62.695 135.378-65.338-2.368-.103-4.751-.181-7.145-.237-11.048-.278-22.12.001-33.139.84-56.339 4.294-103.256 23.721-125.095 64.735z" fill="#af602d"/><path d="m360.658 266.392h-24.475c-4.142 0-7.5 3.358-7.5 7.5s3.358 7.5 7.5 7.5h24.475c4.142 0 7.5-3.358 7.5-7.5s-3.358-7.5-7.5-7.5z" fill="#ff889e"/><path d="m175.818 266.392h-24.476c-4.142 0-7.5 3.358-7.5 7.5s3.358 7.5 7.5 7.5h24.476c4.142 0 7.5-3.358 7.5-7.5s-3.358-7.5-7.5-7.5z" fill="#ff889e"/><path d="m295.279 504.498h-78.558c0-21.691 17.588-39.279 39.279-39.279s39.279 17.588 39.279 39.279z" fill="#e6e6e6"/><path d="m356.173 247.488v-17.969c0-4.142-3.358-7.5-7.5-7.5s-7.5 3.357-7.5 7.5v17.969c0 4.142 3.357 7.5 7.5 7.5 4.141 0 7.5-3.358 7.5-7.5z"/><path d="m171.337 247.488v-17.969c0-4.142-3.358-7.5-7.5-7.5s-7.5 3.357-7.5 7.5v17.969c0 4.142 3.357 7.5 7.5 7.5 4.141 0 7.5-3.358 7.5-7.5z"/><path d="m256.254 280.385c8.607 0 16.69-3.6 22.177-9.877 2.726-3.119 2.408-7.857-.71-10.583-3.119-2.726-7.857-2.407-10.583.711-2.639 3.018-6.605 4.749-10.884 4.749-4.278 0-8.245-1.731-10.883-4.749-2.726-3.118-7.463-3.437-10.582-.71-3.119 2.726-3.437 7.464-.711 10.582 5.487 6.277 13.57 9.877 22.176 9.877z"/><path d="m171.77 93.284c4.141 0 7.5-3.357 7.5-7.5v-14.975c0-4.142-3.358-7.5-7.5-7.5s-7.5 3.358-7.5 7.5v14.975c0 4.143 3.358 7.5 7.5 7.5z"/><path d="m340.74 93.284c4.142 0 7.5-3.357 7.5-7.5v-14.975c0-4.142-3.358-7.5-7.5-7.5s-7.5 3.358-7.5 7.5v14.975c0 4.143 3.357 7.5 7.5 7.5z"/><path d="m240.569 84.494c5.68 0 11.123-1.632 15.685-4.607 4.563 2.975 10.006 4.607 15.686 4.607 8.277 0 16.053-3.464 21.332-9.504 2.726-3.119 2.407-7.857-.711-10.583-3.119-2.726-7.857-2.407-10.583.711-2.431 2.781-6.09 4.376-10.039 4.376s-7.608-1.595-10.039-4.376c-1.396-1.597-3.529-2.557-5.647-2.557-2.12 0-4.249.959-5.646 2.557-2.431 2.781-6.09 4.376-10.039 4.376s-7.609-1.595-10.039-4.376c-2.726-3.119-7.464-3.437-10.582-.711-3.119 2.726-3.437 7.464-.711 10.583 5.28 6.04 13.055 9.504 21.333 9.504z"/><path d="m376.474 512c4.142 0 7.5-3.358 7.5-7.5 0-37.772-21.826-66.377-34.308-79.649 21.727-10.436 41.766-24.581 59.313-42.128 40.794-40.794 63.26-95.033 63.26-152.724 0-24.734-4.141-48.828-12.074-71.505 4.996-7.977 16.369-29.063 19.076-59.352.369-4.125-2.677-7.769-6.802-8.137-4.13-.369-7.769 2.677-8.138 6.803-1.641 18.361-6.912 33.005-11.414 42.591-3.908-8.564-8.38-16.878-13.41-24.893 4.2-16.636 6.222-41.679-4.993-71.671-.913-2.443-3.03-4.236-5.591-4.734-6.852-1.335-13.715-2.056-20.399-2.142-14.228-.183-27.776 2.839-39.471 8.754-6.753-4.149-13.707-7.92-20.847-11.282 31.632-23.972 68.995-20.749 89.513-16.286 7.465 1.624 13.6 6.838 16.414 13.946 4.947 12.497 8.22 25.172 9.731 37.673.497 4.112 4.232 7.043 8.345 6.546 4.112-.497 7.043-4.233 6.546-8.345-1.665-13.777-5.256-27.704-10.675-41.395-4.657-11.765-14.814-20.394-27.172-23.083-24.591-5.349-70.685-9.032-108.304 24.35-24.068-9.074-49.827-13.824-76.32-13.824s-52.252 4.75-76.32 13.824c-37.619-33.381-83.712-29.699-108.304-24.349-12.358 2.689-22.516 11.318-27.172 23.083-16.203 40.936-12.665 75.417-6.845 97.135 4.591 17.128 11.231 29.185 14.732 34.785-7.933 22.678-12.075 46.773-12.075 71.507 0 57.692 22.466 111.93 63.261 152.724 17.547 17.547 37.586 31.693 59.313 42.128-12.483 13.272-34.309 41.877-34.309 79.649 0 4.142 3.358 7.5 7.5 7.5h240.439zm-285.823-458.903c4.572-.701 9.115-1.083 13.556-1.14 8.633-.11 16.892 1.167 24.438 3.741-6.561 4.825-12.88 10.051-18.936 15.654-8.77 8.116-17.125 17.198-24.526 26.757-1.23-12.313-.382-27.602 5.468-45.012zm134.784 443.659c2.625-10.412 10.755-19.12 20.984-22.472 6.138-2.011 13.014-2.066 19.248-.139 10.502 3.246 18.877 12.184 21.464 22.855h-61.752c.019-.081.035-.163.056-.244zm143.193.244h-27.687v-22.528c0-4.142-3.358-7.5-7.5-7.5s-7.5 3.358-7.5 7.5v22.528h-23.509c-2.345-14.458-11.886-27.516-24.921-34.18-6.518-3.333-13.938-5.098-21.256-5.098-8.604 0-17.234 2.375-24.526 6.969-11.39 7.176-19.502 18.968-21.652 32.31h-23.509v-22.528c0-4.142-3.358-7.5-7.5-7.5s-7.5 3.358-7.5 7.5v22.527h-27.687c3.045-32.932 25.283-57.495 33.731-65.728 12.43 4.852 25.325 8.534 38.572 11.007 13.198 2.475 26.644 3.704 40.071 3.704 13.289 0 27.047-.877 40.064-3.702l.033-.006c13.222-2.469 26.116-6.15 38.544-11.002 8.456 8.241 30.687 32.801 33.732 65.727zm39.674-445.043c4.44.057 8.984.439 13.556 1.14 5.85 17.41 6.698 32.699 5.468 45.012-5.158-6.662-10.739-13.059-16.72-19.167-8.05-8.221-17.259-16.271-26.742-23.244 7.546-2.574 15.814-3.853 24.438-3.741zm48.938 178.041c0 107.281-84.49 195.197-190.422 200.708-7.038.365-14.086.354-21.124 0-105.934-5.511-190.424-93.427-190.424-200.708 0-110.823 90.161-200.985 200.985-200.985 110.823.001 200.985 90.162 200.985 200.985zm-398.835-197.907c2.813-7.109 8.949-12.322 16.414-13.946 7.586-1.65 17.471-3.131 28.521-3.131 18.838 0 41.055 4.307 60.993 19.416-7.14 3.362-14.095 7.133-20.848 11.282-11.694-5.915-25.241-8.937-39.471-8.754-6.684.086-13.547.806-20.399 2.142-2.56.499-4.677 2.291-5.59 4.734-11.215 29.992-9.193 55.034-4.993 71.671-5.033 8.019-9.507 16.338-13.416 24.908-8.96-19.107-20.949-58.456-1.211-108.322z"/><path d="m99.258 168.508c-9.339 17.528-14.074 38.218-14.074 61.495 0 51.359 22.858 99.571 62.713 132.273 3.202 2.628 7.928 2.162 10.555-1.041 2.627-3.202 2.161-7.928-1.041-10.555-36.369-29.842-57.228-73.828-57.228-120.678 0-17.999 3.104-34.143 9.239-48.103l7.81 3.577c9.528 4.36 19.754 6.539 29.98 6.539 10.679 0 21.109-2.476 30.793-6.919 15.078-6.904 32.373-6.905 47.425-.015 19.558 8.953 42.084 8.943 61.616.015 15.079-6.905 32.377-6.905 47.433-.011 19.217 8.883 41.48 9.23 60.799.39l7.808-3.576c6.135 13.961 9.239 30.105 9.239 48.103 0 86.052-70.013 156.061-156.07 156.061-26.29 0-52.307-6.7-75.24-19.374-3.625-2.004-8.188-.689-10.192 2.936-2.003 3.625-.688 8.188 2.936 10.192 25.148 13.899 53.674 21.246 82.495 21.246 94.328 0 171.07-76.737 171.07-171.06 0-23.277-4.735-43.967-14.076-61.499-12.767-23.975-34.004-42.107-63.122-53.892-25.827-10.452-57.41-15.753-93.872-15.753-36.461 0-68.044 5.3-93.872 15.753-29.118 11.785-50.356 29.917-63.124 53.896zm156.996-54.649c84.283 0 122.441 28.367 139.689 54.814 0 0-6.907 3.163-6.909 3.164-15.27 6.994-33.114 6.638-48.288-.378-19.121-8.841-41.727-8.435-60.764.379-15.08 6.905-32.378 6.905-47.429.013-19.362-8.865-42.357-9.137-61.665.012-15.065 6.879-32.344 6.87-47.412-.024l-6.91-3.165c17.248-26.448 55.406-54.815 139.688-54.815z"/></svg>