<svg height="512pt" viewBox="-22 0 512 512" width="512pt" xmlns="http://www.w3.org/2000/svg"><g fill="#93a3af"><path d="m385.507812 161h-13v-79h13c5.523438 0 10 4.476562 10 10v59c0 5.523438-4.476562 10-10 10zm0 0"/><path d="m81.507812 181h13v-99h-13c-5.523437 0-10 4.476562-10 10v79c0 5.523438 4.476563 10 10 10zm0 0"/><path d="m91.925781 484.5v-457c0-11.046875 8.953125-20 20-20h243.164063c11.042968 0 20 8.953125 20 20v457c0 11.046875-8.957032 20-20 20h-243.164063c-11.046875 0-20-8.953125-20-20zm0 0"/></g><path d="m375.085938 27.5v457c0 11.050781-8.949219 20-20 20h-19.578126c11.050782 0 20-8.949219 20-20v-457c0-11.050781-8.949218-20-20-20h19.578126c11.050781 0 20 8.949219 20 20zm0 0" fill="#7b8c98"/><path d="m91.925781 58h283.164063v396h-283.164063zm0 0" fill="#ebeef2"/><path d="m355.507812 58h19.582032v396h-19.582032zm0 0" fill="#d3d8df"/><path d="m319.828125 216.398438v145.972656c0 8.289062-6.722656 15-15 15h-46.082031l-21.1875 27.398437c-6.011719 7.761719-17.730469 7.761719-23.730469 0l-21.199219-27.398437h-170.132812c-8.277344 0-15-6.710938-15-15v-145.972656c0-8.289063 6.722656-15 15-15h282.332031c8.277344 0 15 6.710937 15 15zm0 0" fill="#4fceb7"/><path d="m319.828125 216.398438v82.992187h-39.550781l-17.601563 22.738281c-5.148437 6.660156-12.929687 10.480469-21.347656 10.480469-8.421875 0-16.210937-3.820313-21.359375-10.480469l-17.589844-22.738281h-40.191406c-14.890625 0-27-12.109375-27-27v-70.992187h169.640625c8.277344 0 15 6.710937 15 15zm0 0" fill="#3db4a0"/><path d="m444.515625 111.417969h-282.328125c-8.28125 0-15 6.714843-15 15v145.972656c0 8.285156 6.71875 15 15 15h46.082031l21.191407 27.398437c6.003906 7.765626 17.722656 7.765626 23.730468 0l21.191406-27.398437h170.132813c8.28125 0 15-6.714844 15-15v-145.972656c0-8.285157-6.714844-15-15-15zm0 0" fill="#eb5777"/><path d="m213.925781 41.832031h39.164063c4.140625 0 7.5-3.355469 7.5-7.5 0-4.140625-3.359375-7.5-7.5-7.5h-39.164063c-4.144531 0-7.5 3.359375-7.5 7.5 0 4.144531 3.355469 7.5 7.5 7.5zm0 0"/><path d="m459.515625 218.171875c4.140625 0 7.5-3.359375 7.5-7.5v-84.253906c0-12.40625-10.09375-22.5-22.5-22.5h-41.507813v-11.917969c0-9.648438-7.851562-17.5-17.5-17.5h-2.917968v-47c0-15.164062-12.335938-27.5-27.5-27.5h-243.164063c-15.164062 0-27.5 12.335938-27.5 27.5v47h-2.917969c-9.648437 0-17.5 7.851562-17.5 17.5v79c0 9.648438 7.851563 17.5 17.5 17.5h2.917969v5.398438h-61.925781c-12.40625 0-22.5 10.09375-22.5 22.5v145.972656c0 12.40625 10.09375 22.5 22.5 22.5h61.925781v99.628906c0 15.164062 12.335938 27.5 27.5 27.5h243.164063c15.164062 0 27.5-12.335938 27.5-27.5v-66.171875c0-4.140625-3.359375-7.5-7.5-7.5-4.144532 0-7.5 3.359375-7.5 7.5v28.171875h-268.164063v-61.628906h12.75c4.140625 0 7.5-3.355469 7.5-7.5 0-4.140625-3.359375-7.5-7.5-7.5h-89.675781c-4.136719 0-7.5-3.363282-7.5-7.5v-145.972656c0-4.136719 3.363281-7.5 7.5-7.5h117.1875v63.492187c0 12.40625 10.09375 22.5 22.5 22.5h42.398438l18.941406 24.488281c4.292968 5.550782 10.78125 8.730469 17.796875 8.730469 7.019531 0 13.503906-3.183594 17.796875-8.730469l18.941406-24.488281h34.261719v67.480469c0 4.136718-3.363281 7.5-7.5 7.5h-46.078125c-2.320313 0-4.511719 1.074218-5.933594 2.910156l-21.195312 27.398438c-1.429688 1.851562-3.589844 2.910156-5.929688 2.910156s-4.5-1.0625-5.933594-2.910156l-21.191406-27.398438c-1.421875-1.835938-3.613281-2.910156-5.933594-2.910156h-47.792968c-4.144532 0-7.5 3.355468-7.5 7.5 0 4.144531 3.355468 7.5 7.5 7.5h44.113281l18.941406 24.484375c4.292969 5.550781 10.777344 8.734375 17.796875 8.734375 7.015625 0 13.503906-3.183594 17.796875-8.734375l18.941406-24.484375h42.394531c12.40625 0 22.5-10.09375 22.5-22.5v-67.480469h40.265626v90.777344c0 4.144531 3.355468 7.5 7.5 7.5 4.144531 0 7.5-3.355469 7.5-7.5v-90.777344h61.925781c12.40625 0 22.5-10.09375 22.5-22.5v-29.0625c0-4.140625-3.355469-7.5-7.5-7.5s-7.5 3.359375-7.5 7.5v29.0625c0 4.136719-3.363281 7.5-7.5 7.5h-170.128907c-2.320312 0-4.511718 1.078125-5.933593 2.914063l-21.191407 27.394531c-1.433593 1.851562-3.59375 2.914062-5.933593 2.914062-2.339844 0-4.5-1.0625-5.933594-2.914062l-21.191406-27.394531c-1.421875-1.835938-3.609375-2.914063-5.933594-2.914063h-46.078125c-4.136719 0-7.5-3.363281-7.5-7.5v-145.972656c0-4.136719 3.363281-7.5 7.5-7.5h282.324219c4.136719 0 7.5 3.363281 7.5 7.5v84.253906c.003906 4.140625 3.359375 7.5 7.503906 7.5zm-91.925781 243.328125v23c0 6.894531-5.609375 12.5-12.5 12.5h-243.164063c-6.894531 0-12.5-5.605469-12.5-12.5v-23zm17.917968-372c1.378907 0 2.5 1.121094 2.5 2.5v11.917969h-5.417968v-14.417969zm-273.582031-74.5h243.164063c6.890625 0 12.5 5.605469 12.5 12.5v23h-268.164063v-23c0-6.894531 5.605469-12.5 12.5-12.5zm-30.417969 158.5c-1.378906 0-2.5-1.121094-2.5-2.5v-79c0-1.378906 1.121094-2.5 2.5-2.5h2.917969v84zm58.179688-47.082031v67.480469h-40.261719v-128.398438h268.164063v38.417969h-205.402344c-12.40625 0-22.5 10.09375-22.5 22.5zm0 0"/><path d="m406.722656 153.5h-207.546875c-4.144531 0-7.5 3.355469-7.5 7.5s3.355469 7.5 7.5 7.5h207.546875c4.144532 0 7.5-3.355469 7.5-7.5s-3.359375-7.5-7.5-7.5zm0 0"/><path d="m406.722656 179.453125h-207.546875c-4.144531 0-7.5 3.355469-7.5 7.5 0 4.140625 3.355469 7.5 7.5 7.5h207.546875c4.144532 0 7.5-3.359375 7.5-7.5 0-4.144531-3.359375-7.5-7.5-7.5zm0 0"/><path d="m406.722656 205.402344h-38.882812c-4.144532 0-7.5 3.359375-7.5 7.5 0 4.144531 3.355468 7.5 7.5 7.5h38.882812c4.140625 0 7.5-3.355469 7.5-7.5 0-4.140625-3.359375-7.5-7.5-7.5zm0 0"/><path d="m348.464844 212.902344c0-4.140625-3.359375-7.5-7.5-7.5h-141.789063c-4.144531 0-7.5 3.359375-7.5 7.5 0 4.144531 3.355469 7.5 7.5 7.5h141.789063c4.140625 0 7.5-3.355469 7.5-7.5zm0 0"/><path d="m199.175781 231.355469c-4.144531 0-7.5 3.355469-7.5 7.5 0 4.140625 3.355469 7.5 7.5 7.5h78c4.140625 0 7.5-3.359375 7.5-7.5 0-4.144531-3.359375-7.5-7.5-7.5zm0 0"/><path d="m117.839844 243.953125h-68.664063c-4.144531 0-7.5 3.355469-7.5 7.5s3.355469 7.5 7.5 7.5h68.664063c4.144531 0 7.5-3.355469 7.5-7.5s-3.355469-7.5-7.5-7.5zm0 0"/><path d="m125.339844 277.40625c0-4.144531-3.355469-7.5-7.5-7.5h-68.664063c-4.144531 0-7.5 3.355469-7.5 7.5 0 4.140625 3.355469 7.5 7.5 7.5h68.664063c4.144531 0 7.5-3.359375 7.5-7.5zm0 0"/><path d="m107.683594 303.355469c0-4.140625-3.359375-7.5-7.5-7.5h-51.007813c-4.144531 0-7.5 3.359375-7.5 7.5 0 4.144531 3.355469 7.5 7.5 7.5h51.007813c4.140625 0 7.5-3.355469 7.5-7.5zm0 0"/><path d="m49.175781 321.808594c-4.144531 0-7.5 3.355468-7.5 7.5 0 4.144531 3.355469 7.5 7.5 7.5h28.058594c4.144531 0 7.5-3.355469 7.5-7.5 0-4.144532-3.355469-7.5-7.5-7.5zm0 0"/></svg>