<svg height="512pt" viewBox="-26 0 512 512" width="512pt" xmlns="http://www.w3.org/2000/svg"><path d="m452.363281 229.933594c0 52.386718-18.109375 100.546875-48.414062 138.550781-40.75 51.117187-103.554688 83.882813-174.019531 83.882813-70.003907 0-132.445313-32.339844-173.21875-82.886719-30.785157-38.15625-49.214844-86.703125-49.214844-139.546875 0-122.847656 99.585937-222.433594 222.433594-222.433594 122.847656 0 222.433593 99.585938 222.433593 222.433594zm0 0" fill="#f1dd47"/><path d="m403.949219 368.488281c-40.75 51.113281-103.554688 83.878907-174.019531 83.878907-70.003907 0-132.445313-32.335938-173.21875-82.882813 26.515624-48.304687 29.46875-87.304687 29.785156-96.640625v-81.339844c0-79.21875 64.445312-143.664062 143.664062-143.664062s143.664063 64.445312 143.664063 143.664062v80.921875c1.359375 13.734375 7.046875 52.035157 30.125 96.0625zm0 0" fill="#efc40f"/><path d="m420.566406 418.722656c-48.183594-62.65625-57.972656-125.460937-59.875-145.664062v-81.558594c0-72.089844-58.4375-130.527344-130.527344-130.527344-72.089843 0-130.53125 58.4375-130.53125 130.527344v81.558594c-.453124 14.460937-6.027343 77.199218-59.738281 145.445312-9.757812 12.394532-.898437 30.589844 14.878907 30.589844h48.621093c20.722657 0 40.304688 8.933594 54.375 24.148438 17.78125 19.222656 43.21875 31.257812 71.46875 31.257812h1.445313c28.25 0 53.6875-12.035156 71.46875-31.257812 14.070312-15.214844 33.652344-24.148438 54.375-24.148438h48.980468c15.648438 0 24.597657-17.964844 15.058594-30.371094zm0 0" fill="#ebeef2"/><path d="m405.511719 449.09375h-24.589844c15.644531 0 24.59375-17.964844 15.046875-30.375-48.183594-62.65625-57.976562-125.457031-59.867188-145.660156v-81.554688c0-67.945312-51.921874-123.765625-118.238281-129.960937 4.046875-.386719 8.152344-.578125 12.296875-.578125 72.085938 0 130.535156 58.449218 130.535156 130.539062v81.554688c1.894532 20.203125 11.683594 83.003906 59.867188 145.660156 9.542969 12.410156.597656 30.375-15.050781 30.375zm0 0" fill="#d3d8df"/><path d="m452.15625 241.859375c-4.117188-.355469-7.761719 2.699219-8.117188 6.824219-3.75 43.410156-20.195312 83.730468-47.707031 117.277344-21.503906-43.046876-26.859375-79.980469-28.140625-93.257813v-81.203125c0-76.109375-61.921875-138.027344-138.03125-138.027344-76.105468 0-138.027344 61.917969-138.027344 138.027344v20.171875c0 4.140625 3.355469 7.5 7.5 7.5 4.144532 0 7.5-3.359375 7.5-7.5v-20.171875c0-67.839844 55.191407-123.027344 123.027344-123.027344 67.839844 0 123.03125 55.1875 123.03125 123.027344v81.558594c0 .234375.011719.46875.03125.703125 1.753906 18.628906 11.359375 84.46875 61.398438 149.535156 2.679687 3.484375 3.113281 7.929687 1.160156 11.894531-1.972656 4.007813-5.8125 6.402344-10.269531 6.402344h-48.984375c-22.445313 0-44.269532 9.679688-59.878906 26.554688-16.960938 18.335937-41 28.851562-65.960938 28.851562h-1.449219c-24.960937 0-49.003906-10.515625-65.960937-28.851562-15.609375-16.875-37.4375-26.554688-59.882813-26.554688h-48.621093c-4.476563 0-8.320313-2.40625-10.277344-6.4375-1.949219-4.019531-1.46875-8.507812 1.289062-12.015625 56.152344-71.34375 60.953125-137.339844 61.34375-149.847656.003906-.078125.003906-.15625.003906-.234375v-28.730469c0-4.140625-3.355468-7.5-7.5-7.5-4.140624 0-7.5 3.359375-7.5 7.5v28.609375c-.296874 9.101562-3.074218 46.867188-27.726562 94.09375-31.921875-38.5-49.40625-86.824219-49.40625-137.097656 0-53.804688 19.980469-105.292969 56.265625-144.980469 2.796875-3.054687 2.585937-7.800781-.472656-10.59375-3.058594-2.796875-7.800781-2.585937-10.597657.472656-38.816406 42.457031-60.195312 97.539063-60.195312 155.101563 0 55.71875 20.078125 109.195312 56.605469 151.070312-6.339844 10.660156-13.804688 21.675782-22.605469 32.859375-6.300781 8.003907-7.449219 18.671875-2.996094 27.839844 4.460938 9.1875 13.566406 14.890625 23.769532 14.890625h48.621093c18.277344 0 36.089844 7.921875 48.871094 21.738281 19.785156 21.398438 47.84375 33.667969 76.972656 33.667969h1.449219c29.128906 0 57.183594-12.269531 76.972656-33.667969 12.777344-13.816406 30.589844-21.738281 48.867188-21.738281h48.984375c10.144531 0 19.238281-5.664062 23.726562-14.777344 4.464844-9.070312 3.421875-19.667968-2.726562-27.667968-8.765625-11.390626-16.21875-22.800782-22.566407-33.9375 31.839844-36.804688 50.84375-81.71875 55.039063-130.238282.359375-4.125-2.699219-7.757812-6.828125-8.113281zm0 0"/><path d="m94.222656 63.269531c38.179688-31.128906 86.375-48.269531 135.710938-48.269531 113.636718 0 207.871094 88.777344 214.539062 202.109375.234375 3.984375 3.539063 7.0625 7.480469 7.0625.148437 0 .296875-.007813.445313-.015625 4.136718-.242188 7.292968-3.792969 7.046874-7.925781-7.128906-121.25-107.945312-216.230469-229.511718-216.230469-52.78125 0-104.34375 18.339844-145.191406 51.644531-3.207032 2.617188-3.6875 7.339844-1.070313 10.550781 2.617187 3.210938 7.34375 3.6875 10.550781 1.074219zm0 0"/><path d="m204.964844 200.167969v-8.980469c0-4.140625-3.359375-7.5-7.5-7.5-4.144532 0-7.5 3.359375-7.5 7.5v8.980469c0 4.140625 3.355468 7.5 7.5 7.5 4.140625 0 7.5-3.355469 7.5-7.5zm0 0"/><path d="m269.960938 200.167969v-8.980469c0-4.140625-3.359376-7.5-7.5-7.5-4.144532 0-7.5 3.359375-7.5 7.5v8.980469c0 4.140625 3.355468 7.5 7.5 7.5 4.140624 0 7.5-3.355469 7.5-7.5zm0 0"/></svg>