<svg height="511pt" viewBox="0 -13 511.99995 511" width="511pt" xmlns="http://www.w3.org/2000/svg"><path d="m468.675781 80.859375c-47.769531-47.769531-125.214843-47.769531-172.984375 0l-39.695312 39.691406-39.691406-39.691406c-47.769532-47.769531-125.214844-47.769531-172.984376 0-47.769531 47.765625-47.769531 125.214844 0 172.980469l191.484376 191.488281c11.703124 11.703125 30.679687 11.703125 42.382812 0l191.488281-191.488281c47.765625-47.765625 47.765625-125.214844 0-172.980469zm0 0" fill="#eb5777"/><path d="m468.664062 253.851562-191.460937 191.464844c-11.714844 11.710938-30.695313 11.710938-42.410156 0l-12.289063-12.289062c1.207032-.90625 2.386719-1.894532 3.484375-2.992188l191.492188-191.488281c47.753906-47.785156 47.753906-125.222656 0-173.003906-8.121094-8.121094-17.089844-14.867188-26.636719-20.214844 28.363281 2 56.125 13.824219 77.820312 35.519531 47.785157 47.785156 47.785157 125.222656 0 173.003906zm0 0" fill="#ce3f63"/><path d="m53.9375 70.222656h213.101562v109.292969h-213.101562zm0 0" fill="#ba6f3c"/><path d="m283.535156 171.246094c0 15.558594-12.613281 28.171875-28.171875 28.171875-15.558593 0-28.171875-12.613281-28.171875-28.171875s12.613282-28.171875 28.171875-28.171875c15.558594 0 28.171875 12.613281 28.171875 28.171875zm0 0" fill="#e39f6e"/><path d="m93.785156 171.246094c0 15.558594-12.613281 28.171875-28.171875 28.171875-15.558593 0-28.171875-12.613281-28.171875-28.171875s12.613282-28.171875 28.171875-28.171875c15.558594 0 28.171875 12.613281 28.171875 28.171875zm0 0" fill="#e39f6e"/><path d="m160.488281 265.601562c-38.296875 0-70.597656-28.515624-75.34375-66.515624l-7.417969-59.386719c-3.503906-28.042969 18.363282-52.8125 46.625-52.8125h72.269532c28.261718 0 50.128906 24.769531 46.625 52.8125l-7.417969 59.386719c-4.746094 38-37.046875 66.515624-75.339844 66.515624zm0 0" fill="#f8c298"/><path d="m209.226562 105.878906h-155.507812c-5.628906 0-10.195312-4.5625-10.195312-10.195312v-10.792969c0-42.464844 34.425781-76.890625 76.890624-76.890625h155.507813c5.628906 0 10.195313 4.566406 10.195313 10.195312v10.796876c0 42.464843-34.425782 76.886718-76.890626 76.886718zm0 0" fill="#c2c6cc"/><path d="m474.554688 447.695312c0 17.144532-13.898438 31.042969-31.042969 31.042969-17.140625 0-31.039063-13.898437-31.039063-31.042969 0-17.140624 13.898438-31.039062 31.039063-31.039062 17.144531 0 31.042969 13.898438 31.042969 31.039062zm0 0" fill="#ba6f3c"/><path d="m273.808594 447.695312c0 17.144532-13.898438 31.042969-31.042969 31.042969s-31.042969-13.898437-31.042969-31.042969c0-17.140624 13.898438-31.039062 31.042969-31.039062s31.042969 13.898438 31.042969 31.039062zm0 0" fill="#ba6f3c"/><path d="m324.652344 463.542969h36.972656c48.265625 0 88.769531-36.386719 93.925781-84.375l3.730469-34.691407c7.421875-69.054687-46.691406-129.289062-116.140625-129.289062-69.453125 0-123.5625 60.234375-116.144531 129.289062l3.730468 34.691407c5.15625 47.988281 45.660157 84.375 93.925782 84.375zm0 0" fill="#d88852"/><path d="m464.238281 383.046875c0 15.3125-12.414062 27.726563-27.726562 27.726563s-27.726563-12.414063-27.726563-27.726563c0-15.316406 12.414063-27.726563 27.726563-27.726563s27.726562 12.410157 27.726562 27.726563zm0 0" fill="#f8c298"/><path d="m277.492188 383.046875c0 15.3125-12.414063 27.726563-27.726563 27.726563s-27.726563-12.414063-27.726563-27.726563c0-15.316406 12.414063-27.726563 27.726563-27.726563s27.726563 12.410157 27.726563 27.726563zm0 0" fill="#f8c298"/><path d="m255.742188 304.40625 13.246093 106.039062c4.671875 37.398438 36.460938 65.464844 74.152344 65.464844 37.6875 0 69.476563-28.066406 74.148437-65.464844l13.246094-106.039062zm0 0" fill="#ffd6c0"/><path d="m242.289062 294.507812v30.503907s57.183594 20.351562 98.371094-17.359375c0 0 15.8125 50.28125 83.859375 60.644531 5.199219.792969 10.042969-2.835937 10.734375-8.046875l8.734375-65.746094h-201.699219zm0 0" fill="#d88852"/><path d="m398.832031 409.480469c0 4.140625-3.355469 7.496093-7.496093 7.496093-4.136719 0-7.492188-3.355468-7.492188-7.496093 0-4.136719 3.355469-7.492188 7.492188-7.492188 4.140624 0 7.496093 3.355469 7.496093 7.492188zm0 0" fill="#ed7a98"/><path d="m302.433594 409.480469c0 4.140625-3.355469 7.496093-7.492188 7.496093-4.140625 0-7.496094-3.355468-7.496094-7.496093 0-4.136719 3.355469-7.492188 7.496094-7.492188 4.136719 0 7.492188 3.355469 7.492188 7.492188zm0 0" fill="#ed7a98"/><path d="m192.875 301.269531c-12.367188-12.367187-32.417969-12.367187-44.789062 0l-10.277344 10.277344-10.273438-10.277344c-12.371094-12.367187-32.421875-12.367187-44.789062 0-12.371094 12.367188-12.371094 32.421875 0 44.789063l49.578125 49.578125c3.027343 3.03125 7.941406 3.03125 10.972656 0l49.578125-49.578125c12.371094-12.367188 12.371094-32.421875 0-44.789063zm0 0" fill="#74e2cd"/><path d="m192.875 346.0625-49.574219 49.570312c-3.035156 3.035157-7.949219 3.035157-10.980469 0l-3.183593-3.179687c.3125-.234375.621093-.492187.902343-.777344l49.582032-49.578125c12.363281-12.375 12.363281-32.421875 0-44.792968-2.101563-2.105469-4.425782-3.851563-6.894532-5.234376 7.34375.515626 14.53125 3.578126 20.148438 9.195313 12.371094 12.375 12.371094 32.425781 0 44.796875zm0 0" fill="#3db4a0"/><path d="m508.800781 138.660156c-5.386719-23.890625-17.429687-45.710937-34.824219-63.105468-24.519531-24.519532-57.117187-38.023438-91.792968-38.023438-34.675782 0-67.277344 13.503906-91.796875 38.023438l-15.851563 15.851562v-9.039062c11.917969-14.554688 19.082032-33.140626 19.082032-53.375v-10.796876c0-9.757812-7.9375-17.695312-17.695313-17.695312h-53c-4.140625 0-7.5 3.359375-7.5 7.5s3.359375 7.5 7.5 7.5h53c1.484375 0 2.695313 1.210938 2.695313 2.695312v10.796876c0 35.746093-27.175782 65.261718-61.953126 68.984374 8.261719-5.824218 15.527344-13.164062 21.359376-21.796874 2.320312-3.433594 1.417968-8.097657-2.015626-10.414063-3.433593-2.320313-8.09375-1.417969-10.414062 2.015625-9.042969 13.386719-22.269531 22.996094-37.292969 27.578125 6.8125-5.355469 12.855469-11.792969 17.84375-19.179687 2.320313-3.433594 1.417969-8.097657-2.015625-10.414063-3.433594-2.320313-8.09375-1.417969-10.414062 2.015625-12.945313 19.160156-34.457032 30.597656-57.542969 30.597656h-82.453125c-1.484375 0-2.695312-1.207031-2.695312-2.695312v-10.792969c0-38.261719 31.128906-69.390625 69.390624-69.390625h69.847657c4.140625 0 7.5-3.359375 7.5-7.5s-3.359375-7.5-7.5-7.5h-69.847657c-43.945312 0-80.136718 33.769531-84.023437 76.71875-21.015625 21.78125-33.785156 50.25-36.03125 80.441406-2.277344 30.632813 6.355469 61.121094 24.3125 85.851563 1.464844 2.019531 3.753906 3.09375 6.074219 3.09375 1.527344 0 3.070312-.464844 4.398437-1.433594 3.351563-2.433594 4.097657-7.125 1.664063-10.476563-15.875-21.859374-23.507813-48.824218-21.492188-75.921874 1.578125-21.199219 9.027344-41.4375 21.328125-58.519532 1.378907 5.148438 5.015625 9.371094 9.792969 11.539063v29.398437c-9.910156 6.34375-16.496094 17.441406-16.496094 30.054688 0 19.667968 16 35.671875 35.671875 35.671875 4.4375 0 8.753907-.804688 12.796875-2.359375 7.128906 39.382812 41.628906 68.542968 82.078125 68.542968 40.445313 0 74.941407-29.15625 82.074219-68.539062 4.035156 1.550781 8.347656 2.355469 12.800781 2.355469 19.667969 0 35.671875-16 35.671875-35.671875 0-12.613282-6.585937-23.710938-16.496094-30.054688v-28.570312l26.457032-26.457032c21.6875-21.6875 50.519531-33.632812 81.1875-33.632812 30.667968 0 59.5 11.945312 81.1875 33.632812 31.003906 31 41.609375 76.109376 27.679687 117.726563-1.3125 3.929687.804688 8.179687 4.730469 9.492187.792969.265626 1.59375.390626 2.382812.390626 3.136719 0 6.0625-1.984376 7.113282-5.121094 7.546875-22.554688 8.765625-46.757813 3.523437-69.992188zm-447.363281-25.28125h12.433594c-2.878906 7.097656-4.25 14.746094-3.96875 22.460938-1.417969-.171875-2.847656-.265625-4.289063-.265625-1.414062 0-2.808593.089843-4.175781.253906zm-16.496094 57.867188c0-11.398438 9.273438-20.671875 20.671875-20.671875 2.066407 0 4.085938.300781 6.023438.894531l4.679687 37.457031c-3.21875 1.957031-6.878906 2.992188-10.703125 2.992188-11.398437 0-20.671875-9.273438-20.671875-20.671875zm115.546875 86.855468c-34.441406 0-63.632812-25.769531-67.902343-59.945312l-7.417969-59.386719c-1.105469-8.867187.816406-17.8125 5.425781-25.390625h118.632812c6.757813 0 13.320313-.820312 19.621094-2.324218 5.667969 8.003906 8.183594 17.890624 6.957032 27.714843l-7.417969 59.386719c-4.269531 34.175781-33.457031 59.945312-67.898438 59.945312zm94.875-66.183593c-3.839843 0-7.492187-1.042969-10.703125-3l4.675782-37.449219c1.941406-.589844 3.957031-.894531 6.027343-.894531 11.398438 0 20.671875 9.273437 20.671875 20.671875 0 11.398437-9.273437 20.671875-20.671875 20.671875zm0-56.34375c-1.453125 0-2.886719.09375-4.304687.261719.375-10.46875-2.28125-20.792969-7.585938-29.742188 5.714844-2.550781 11.101563-5.695312 16.0625-9.390625v39.125c-1.367187-.164063-2.761718-.253906-4.171875-.253906zm0 0"/><path d="m487.804688 229.535156c-3.433594-2.320312-8.09375-1.417968-10.414063 2.015625-4.109375 6.078125-8.828125 11.792969-14.019531 16.988281l-15.894532 15.890626c-3.519531-5.4375-7.476562-10.625-11.859374-15.503907-23.542969-26.207031-57.25-41.238281-92.480469-41.238281-68.550781 0-124.320313 55.679688-124.320313 124.113281 0 4.5.242188 9.039063.722656 13.480469l1.824219 16.957031c-4.285156 5.832031-6.824219 13.027344-6.824219 20.804688 0 11.753906 5.792969 22.175781 14.664063 28.578125-4.050781 1.527344-7.78125 3.71875-11.054687 6.441406l-43.335938-43.335938 23.363281-23.367187c7.398438-7.398437 11.472657-17.234375 11.472657-27.699219 0-10.460937-4.074219-20.296875-11.472657-27.695312-15.273437-15.273438-40.121093-15.273438-55.394531 0l-4.972656 4.972656-4.976563-4.972656c-12.007812-12.011719-29.9375-14.570313-44.476562-7.695313l-30.441407-30.441406c-2.929687-2.929687-7.679687-2.929687-10.609374 0-2.925782 2.925781-2.925782 7.675781 0 10.605469l28.867187 28.863281c-13.988281 15.351563-13.570313 39.226563 1.269531 54.0625l49.578125 49.578125c2.972657 2.976562 6.878907 4.464844 10.789063 4.464844 3.90625 0 7.816406-1.488282 10.789062-4.464844l15.605469-15.605469 44.449219 44.445313c-2.824219 5.359375-4.433594 11.453125-4.433594 17.917968 0 21.253907 17.289062 38.542969 38.542969 38.542969 16.796875 0 31.1875-10.660156 36.429687-25.890625 4.246094 2.121094 8.660156 3.945313 13.199219 5.460938 14.058594 11.046875 31.730469 17.597656 50.746094 17.597656s36.6875-6.550781 50.75-17.601562c4.535156-1.511719 8.941406-3.335938 13.1875-5.457032 5.226562 15.246094 19.582031 25.890625 36.4375 25.890625 21.253906 0 38.542969-17.289062 38.542969-38.542969 0-16.484374-10.402344-30.574218-24.984376-36.074218 8.875-6.402344 14.667969-16.824219 14.667969-28.578125 0-7.777344-2.539062-14.96875-6.824219-20.800781l1.824219-16.960938c2.496094-23.261719-1.671875-46.554688-11.640625-67.257812l18.878906-18.882813c5.867188-5.863281 11.195313-12.324219 15.839844-19.191406 2.320313-3.429688 1.417969-8.09375-2.011718-10.414063zm-349.808594 160.800782c-.054688.050781-.316406.050781-.367188 0l-49.582031-49.582032c-9.421875-9.421875-9.421875-24.757812 0-34.179687 4.710937-4.714844 10.902344-7.070313 17.09375-7.070313 6.1875 0 12.378906 2.355469 17.089844 7.070313l10.277343 10.277343c2.929688 2.929688 7.675782 2.929688 10.605469 0l10.277344-10.277343c9.425781-9.425781 24.757813-9.425781 34.179687 0 4.566407 4.5625 7.082032 10.632812 7.082032 17.089843 0 6.457032-2.515625 12.527344-7.082032 17.089844zm205.144531-167.648438c30.976563 0 60.617187 13.21875 81.316406 36.261719 20.703125 23.042969 30.675781 53.925781 27.367188 84.730469l-.785157 7.285156c-2.125-.964844-4.363281-1.726563-6.6875-2.257813l2.160157-16.265625c.546875-4.105468-2.339844-7.875-6.445313-8.421875-4.109375-.542969-7.878906 2.34375-8.421875 6.449219l-3.828125 28.792969c-.085937.648437-.449218 1.042969-.738281 1.261719-.292969.21875-.777344.460937-1.429687.359374-26.15625-3.984374-47.1875-14.5-62.5-31.257812-11.46875-12.546875-15.308594-24.136719-15.335938-24.222656-.769531-2.441406-2.734375-4.328125-5.210938-4.992188-2.476562-.664062-5.121093-.019531-7.007812 1.714844-29.554688 27.058594-68.648438 21.394531-84.085938 17.703125-4.027343-.964844-8.074218 1.523437-9.039062 5.550781-.960938 4.027344 1.523438 8.074219 5.550781 9.039063 1.214844.289062 2.566407.589843 4.023438.886719l1.589843 12.730468c-1.277343-.136718-2.570312-.214844-3.871093-.214844-5.175781 0-10.09375 1.132813-14.527344 3.148438l-.78125-7.292969c-.421875-3.914062-.636719-7.90625-.636719-11.875 0-60.164062 49.042969-109.113281 109.324219-109.113281zm74.777344 212.632812c2.777343-6.066406 4.847656-12.539062 6.089843-19.328124 3.003907 1.140624 6.160157 1.863281 9.410157 2.144531-4.390625 6.402343-9.613281 12.179687-15.5 17.183593zm18.59375-32.050781c-3.726563 0-7.277344-1.003906-10.40625-2.894531l3.097656-24.792969c2.460937-.480469 4.804687-1.507812 6.878906-3.0625 2.992188-2.246093 5.089844-5.34375 6.089844-8.878906 8.402344 2.457031 14.566406 10.21875 14.566406 19.40625 0 11.152344-9.074219 20.222656-20.226562 20.222656zm-183.664063 14.859375c3.246094-.28125 6.40625-1.015625 9.417969-2.160156 1.242187 6.792969 3.3125 13.273438 6.09375 19.347656-5.890625-5.003906-11.121094-10.78125-15.511719-17.1875zm-3.082031-55.308594c1.996094 0 3.945313.285157 5.824219.851563l4.585937 36.71875c-3.136719 1.890625-6.703125 2.878906-10.410156 2.878906-11.152344 0-20.226563-9.070312-20.226563-20.222656 0-11.15625 9.074219-20.226563 20.226563-20.226563zm-7 108.417969c-12.980469 0-23.542969-10.558593-23.542969-23.542969 0-11.710937 8.597656-21.449218 19.8125-23.242187 7.09375 10.9375 16.230469 20.410156 26.816406 27.898437-2.167968 10.914063-11.726562 18.886719-23.085937 18.886719zm33.664063-61.722656-8.992188-72c19.542969 1.65625 46.554688-.433594 70.355469-17.828125 8.078125 15.335938 29.164062 44.191406 76.484375 54.347656l-4.429688 35.480469c-4.195312 33.574219-32.871094 58.894531-66.707031 58.894531-33.839844 0-62.515625-25.320312-66.710937-58.894531zm190.625 38.179687c0 12.984376-10.558594 23.542969-23.542969 23.542969-11.398438 0-20.921875-7.96875-23.078125-18.894531 10.578125-7.488281 19.714844-16.960938 26.808594-27.890625 11.214843 1.792969 19.8125 11.53125 19.8125 23.242187zm0 0"/><path d="m117.453125 157.671875c-4.140625.109375-7.40625 3.558594-7.292969 7.699219l.121094 4.46875c.113281 4.070312 3.445312 7.292968 7.492188 7.292968.070312 0 .140624 0 .210937-.003906 4.140625-.113281 7.40625-3.5625 7.292969-7.699218l-.125-4.46875c-.109375-4.140626-3.542969-7.394532-7.699219-7.289063zm0 0"/><path d="m200.046875 157.671875c-4.140625.109375-7.402344 3.558594-7.289063 7.699219l.121094 4.46875c.109375 4.070312 3.445313 7.292968 7.492188 7.292968.070312 0 .140625 0 .210937-.003906 4.140625-.113281 7.402344-3.5625 7.289063-7.699218l-.121094-4.46875c-.113281-4.140626-3.546875-7.394532-7.703125-7.289063zm0 0"/><path d="m188.519531 190.296875c-3.351562-2.425781-8.042969-1.675781-10.472656 1.675781-4.414063 6.097656-11.527344 9.734375-19.027344 9.734375-7.503906 0-14.617187-3.636719-19.03125-9.734375-2.433593-3.351562-7.117187-4.101562-10.476562-1.675781-3.355469 2.433594-4.105469 7.121094-1.675781 10.476563 7.226562 9.976562 18.882812 15.9375 31.179687 15.9375 12.300781 0 23.957031-5.960938 31.179687-15.9375 2.429688-3.355469 1.679688-8.046876-1.675781-10.476563zm0 0"/><path d="m302.226562 369.566406c-4.140624.113282-7.402343 3.5625-7.289062 7.703125l.121094 4.394531c.109375 4.070313 3.445312 7.292969 7.492187 7.292969.070313 0 .140625 0 .210938-.003906 4.140625-.113281 7.402343-3.5625 7.289062-7.703125l-.121093-4.394531c-.113282-4.140625-3.578126-7.414063-7.703126-7.289063zm0 0"/><path d="m391.222656 376.855469c-.113281-4.070313-3.449218-7.292969-7.496094-7.292969-.066406 0-.136718 0-.207031.003906-4.140625.113282-7.40625 3.5625-7.292969 7.699219l.121094 4.398437c.109375 4.070313 3.445313 7.292969 7.492188 7.292969.070312 0 .140625 0 .207031-.003906 4.144531-.113281 7.40625-3.5625 7.292969-7.699219zm0 0"/><path d="m372.246094 401.699219c-3.355469-2.429688-8.042969-1.679688-10.472656 1.675781-4.320313 5.96875-11.289063 9.53125-18.632813 9.53125-7.347656 0-14.3125-3.5625-18.636719-9.53125-2.429687-3.355469-7.117187-4.105469-10.472656-1.675781-3.355469 2.429687-4.105469 7.121093-1.675781 10.472656 7.132812 9.855469 18.640625 15.734375 30.78125 15.734375s23.648437-5.882812 30.785156-15.734375c2.429687-3.355469 1.679687-8.042969-1.675781-10.472656zm0 0"/><path d="m41.394531 367.089844h.074219c4.109375 0 7.460938-3.308594 7.5-7.425782l.03125-3.066406c.039062-4.144531-3.285156-7.535156-7.429688-7.574218-.023437 0-.046874 0-.074218 0-4.105469 0-7.457032 3.308593-7.496094 7.425781l-.03125 3.070312c-.039062 4.140625 3.285156 7.53125 7.425781 7.570313zm0 0"/><path d="m41.3125 378.492188c-4.128906-.007813-7.53125 3.285156-7.574219 7.429687l-.027343 3.066406c-.042969 4.140625 3.285156 7.53125 7.425781 7.570313h.074219c4.109374 0 7.457031-3.308594 7.5-7.425782l.027343-3.066406c.039063-4.144531-3.285156-7.535156-7.425781-7.574218zm0 0"/><path d="m65.121094 373.011719c.042968-4.144531-3.28125-7.535157-7.421875-7.574219l-3.070313-.03125c-.023437 0-.050781 0-.074218 0-4.109376 0-7.460938 3.3125-7.5 7.425781-.039063 4.144531 3.285156 7.535157 7.425781 7.574219l3.066406.03125h.078125c4.105469 0 7.457031-3.308594 7.496094-7.425781zm0 0"/><path d="m28.226562 365.179688-3.066406-.03125c-4.101562-.050782-7.535156 3.285156-7.574218 7.425781-.042969 4.140625 3.28125 7.53125 7.425781 7.574219l3.066406.027343h.074219c4.109375 0 7.460937-3.308593 7.5-7.425781.039062-4.140625-3.285156-7.53125-7.425782-7.570312zm0 0"/><path d="m83.105469 409.050781h.074219c4.109374 0 7.460937-3.308593 7.5-7.425781l.027343-3.070312c.042969-4.140626-3.28125-7.53125-7.421875-7.574219-4.128906-.054688-7.535156 3.285156-7.574218 7.425781l-.03125 3.070312c-.042969 4.144532 3.28125 7.535157 7.425781 7.574219zm0 0"/><path d="m83.023438 420.453125c-4.105469-.039063-7.53125 3.285156-7.574219 7.425781l-.03125 3.066406c-.039063 4.144532 3.285156 7.535157 7.425781 7.574219h.078125c4.105469 0 7.457031-3.308593 7.496094-7.425781l.03125-3.066406c.039062-4.144532-3.285157-7.535156-7.425781-7.574219zm0 0"/><path d="m99.40625 407.398438-3.066406-.03125c-.027344 0-.050782 0-.078125 0-4.105469 0-7.457031 3.308593-7.496094 7.425781-.042969 4.144531 3.28125 7.535156 7.425781 7.574219l3.066406.03125h.074219c4.109375 0 7.460938-3.3125 7.5-7.425782.042969-4.144531-3.28125-7.535156-7.425781-7.574218zm0 0"/><path d="m69.9375 407.136719-3.066406-.027344c-.027344 0-.050782 0-.078125 0-4.105469 0-7.457031 3.308594-7.496094 7.425781-.042969 4.140625 3.28125 7.53125 7.421875 7.574219l3.070312.027344h.074219c4.109375 0 7.460938-3.308594 7.5-7.425781.039063-4.140626-3.285156-7.53125-7.425781-7.574219zm0 0"/><path d="m470.714844 32.269531h.074218c4.109376 0 7.457032-3.3125 7.5-7.425781l.027344-3.070312c.042969-4.140626-3.28125-7.53125-7.425781-7.574219-.023437 0-.050781 0-.074219 0-4.109375 0-7.457031 3.3125-7.5 7.425781l-.027344 3.070312c-.042968 4.140626 3.28125 7.53125 7.425782 7.574219zm0 0"/><path d="m470.632812 43.671875c-4.101562-.0625-7.53125 3.28125-7.574218 7.421875l-.03125 3.070312c-.039063 4.140626 3.285156 7.53125 7.425781 7.574219h.078125c4.105469 0 7.457031-3.308593 7.496094-7.425781l.03125-3.070312c.039062-4.140626-3.285156-7.53125-7.425782-7.570313zm0 0"/><path d="m483.800781 45.582031 3.066407.03125h.074218c4.109375 0 7.457032-3.308593 7.5-7.425781.039063-4.140625-3.285156-7.53125-7.425781-7.574219l-3.070313-.03125c-.023437 0-.050781 0-.074218 0-4.105469 0-7.457032 3.3125-7.5 7.425781-.035156 4.144532 3.285156 7.535157 7.429687 7.574219zm0 0"/><path d="m454.328125 45.324219 3.070313.03125h.074218c4.109375 0 7.457032-3.3125 7.5-7.425781.039063-4.144532-3.285156-7.535157-7.425781-7.574219l-3.070313-.03125c-4.15625-.070313-7.53125 3.285156-7.574218 7.425781-.039063 4.140625 3.285156 7.535156 7.425781 7.574219zm0 0"/><path d="m351.894531 118.128906h18.582031c4.144532 0 7.5-3.359375 7.5-7.5 0-4.144531-3.355468-7.5-7.5-7.5h-18.582031c-4.140625 0-7.5 3.355469-7.5 7.5 0 4.140625 3.359375 7.5 7.5 7.5zm0 0"/><path d="m351.894531 146.835938h63.898438c4.140625 0 7.5-3.359376 7.5-7.5 0-4.144532-3.359375-7.5-7.5-7.5h-63.898438c-4.140625 0-7.5 3.355468-7.5 7.5 0 4.140624 3.359375 7.5 7.5 7.5zm0 0"/><path d="m351.894531 168.617188h63.898438c4.140625 0 7.5-3.359376 7.5-7.5 0-4.140626-3.359375-7.5-7.5-7.5h-63.898438c-4.140625 0-7.5 3.359374-7.5 7.5 0 4.140624 3.359375 7.5 7.5 7.5zm0 0"/></svg>