<svg height="512pt" viewBox="0 0 512 512.002" width="512pt" xmlns="http://www.w3.org/2000/svg"><path d="m504.5 281.917969v-51.835938c0-5.289062-4.011719-9.714843-9.273438-10.230469l-57.84375-5.6875c-4.195312-.410156-7.664062-3.378906-8.820312-7.4375-3.808594-13.371093-9.125-26.105468-15.761719-38.007812-2.039062-3.660156-1.578125-8.207031 1.082031-11.445312l36.835938-44.871094c3.355469-4.085938 3.0625-10.050782-.675781-13.789063l-36.652344-36.65625c-3.742187-3.738281-9.707031-4.03125-13.792969-.675781l-44.871094 36.839844c-3.238281 2.660156-7.785156 3.121094-11.445312 1.078125-11.898438-6.636719-24.636719-11.953125-38.007812-15.761719-4.054688-1.152344-7.027344-4.621094-7.4375-8.820312l-5.6875-57.84375c-.515626-5.261719-4.941407-9.273438-10.226563-9.273438h-51.839844c-5.289062 0-9.714843 4.011719-10.230469 9.273438l-5.6875 57.84375c-.410156 4.199218-3.378906 7.664062-7.433593 8.820312-13.371094 3.808594-26.109375 9.125-38.007813 15.761719-3.660156 2.042969-8.207031 1.582031-11.445312-1.078125l-44.871094-36.839844c-4.089844-3.355469-10.054688-3.0625-13.792969.675781l-36.65625 36.65625c-3.738281 3.738281-4.03125 9.703125-.675781 13.789063l36.839844 44.871094c2.660156 3.242187 3.121094 7.789062 1.078125 11.445312-6.636719 11.902344-11.953125 24.636719-15.761719 38.007812-1.152344 4.058594-4.621094 7.027344-8.820312 7.4375l-57.84375 5.6875c-5.261719.515626-9.273438 4.941407-9.273438 10.230469v51.835938c0 5.289062 4.011719 9.714843 9.273438 10.230469l57.84375 5.6875c4.199218.410156 7.664062 3.378906 8.820312 7.4375 3.808594 13.371093 9.125 26.105468 15.761719 38.007812 2.042969 3.660156 1.582031 8.207031-1.078125 11.445312l-36.839844 44.871094c-3.355469 4.085938-3.0625 10.050782.675781 13.789063l36.65625 36.65625c3.738281 3.738281 9.703125 4.03125 13.789063.675781l44.871094-36.839844c3.242187-2.65625 7.789062-3.117187 11.445312-1.078125 11.902344 6.636719 24.636719 11.953125 38.007812 15.761719 4.058594 1.15625 7.027344 4.625 7.4375 8.820312l5.6875 57.84375c.515626 5.261719 4.941407 9.273438 10.230469 9.273438h51.835938c5.289062 0 9.714843-4.011719 10.230469-9.273438l5.6875-57.84375c.410156-4.195312 3.378906-7.664062 7.4375-8.820312 13.371093-3.808594 26.105468-9.125 38.007812-15.761719 3.660156-2.039062 8.207031-1.578125 11.445312 1.078125l44.871094 36.839844c4.085938 3.355469 10.050782 3.0625 13.789063-.675781l36.65625-36.65625c3.738281-3.738281 4.03125-9.703125.675781-13.789063l-36.839844-44.871094c-2.65625-3.242187-3.117187-7.789062-1.078125-11.445312 6.636719-11.902344 11.953125-24.636719 15.761719-38.007812 1.15625-4.058594 4.625-7.027344 8.820312-7.4375l57.84375-5.6875c5.261719-.515626 9.273438-4.941407 9.273438-10.230469zm0 0" fill="#d3d8df"/><path d="m256 409c-84.363281 0-153-68.636719-153-153s68.636719-153 153-153 153 68.636719 153 153-68.636719 153-153 153zm0 0" fill="#c2c6cc"/><path d="m397 256c0 77.871094-63.125 141-141 141-77.871094 0-141-63.128906-141-141s63.128906-141 141-141c77.875 0 141 63.128906 141 141zm0 0" fill="#74e2cd"/><path d="m256 375.203125c-65.726562 0-119.203125-53.472656-119.203125-119.203125s53.476563-119.203125 119.203125-119.203125c65.730469 0 119.203125 53.472656 119.203125 119.203125s-53.472656 119.203125-119.203125 119.203125zm0 0" fill="#4fceb7"/><path d="m363.203125 256c0 59.207031-47.996094 107.203125-107.203125 107.203125s-107.203125-47.996094-107.203125-107.203125 47.996094-107.203125 107.203125-107.203125 107.203125 47.996094 107.203125 107.203125zm0 0" fill="#ebeef2"/><path d="m119.3125 435.34375-11.667969 9.578125c-1.109375.914063-2.714843.835937-3.726562-.183594l-36.65625-36.652343c-1.015625-1.015626-1.09375-2.621094-.183594-3.730469l36.839844-44.871094c4.667969-5.6875 5.390625-13.480469 1.832031-19.855469-6.410156-11.5-11.492188-23.75-15.097656-36.410156-2.019532-7.085938-8.023438-12.128906-15.300782-12.847656l-57.839843-5.683594c-1.433594-.140625-2.511719-1.332031-2.511719-2.769531v-51.835938c0-1.4375 1.078125-2.628906 2.507812-2.769531l57.84375-5.683594c7.277344-.71875 13.28125-5.761718 15.300782-12.847656 3.605468-12.660156 8.6875-24.910156 15.101562-36.410156 3.550782-6.375 2.832032-14.167969-1.835937-19.855469l-36.839844-44.871094c-.910156-1.109375-.832031-2.714843.183594-3.730469l36.652343-36.652343c1.019532-1.015625 2.621094-1.09375 3.730469-.183594l8.777344 7.203125c3.195313 2.628906 7.925781 2.164062 10.554687-1.039062 2.628907-3.199219 2.164063-7.925782-1.039062-10.554688l-8.773438-7.203125c-7.101562-5.832031-17.355468-5.332031-23.855468 1.167969l-36.65625 36.65625c-6.496094 6.496094-7 16.753906-1.167969 23.851562l36.839844 44.871094c.71875.875.847656 2.097656.324219 3.035156-6.972657 12.507813-12.5 25.832032-16.421876 39.605469-.320312 1.125-1.242187 1.921875-2.34375 2.027344l-57.84375 5.6875c-9.140624.898437-16.039062 8.507812-16.039062 17.695312v51.835938c0 9.1875 6.898438 16.796875 16.042969 17.695312l57.839843 5.6875c1.105469.105469 2.023438.902344 2.34375 2.027344 3.921876 13.769531 9.449219 27.097656 16.421876 39.605469.527343.9375.394531 2.15625-.324219 3.03125l-36.839844 44.871094c-5.828125 7.101562-5.328125 17.355468 1.171875 23.855468l36.652344 36.652344c3.46875 3.46875 8.007812 5.230469 12.570312 5.230469 3.976563 0 7.976563-1.34375 11.285156-4.058594l11.667969-9.582031c3.199219-2.625 3.664063-7.351563 1.035157-10.554688-2.628907-3.199218-7.355469-3.664062-10.554688-1.035156zm0 0"/><path d="m495.960938 212.386719-57.84375-5.6875c-1.101563-.105469-2.019532-.902344-2.339844-2.027344-3.925782-13.769531-9.449219-27.097656-16.425782-39.605469-.523437-.9375-.390624-2.15625.328126-3.03125l36.835937-44.871094c5.832031-7.105468 5.328125-17.359374-1.167969-23.855468l-36.65625-36.652344c-6.496094-6.496094-16.75-7-23.851562-1.171875l-44.871094 36.839844c-.875.71875-2.097656.847656-3.035156.328125-12.507813-6.976563-25.832032-12.503906-39.605469-16.425782-1.125-.320312-1.917969-1.238281-2.027344-2.339843l-5.6875-57.84375c-.894531-9.148438-8.503906-16.042969-17.691406-16.042969h-51.839844c-9.1875 0-16.796875 6.894531-17.695312 16.039062l-5.683594 57.84375c-.109375 1.101563-.90625 2.019532-2.027344 2.34375-13.773437 3.921876-27.101562 9.449219-39.605469 16.421876-.941406.523437-2.160156.394531-3.035156-.324219l-11.011718-9.042969c-3.199219-2.625-7.925782-2.164062-10.554688 1.039062-2.628906 3.203126-2.164062 7.925782 1.035156 10.558594l11.015625 9.039063c5.683594 4.667969 13.476563 5.386719 19.855469 1.832031 11.496094-6.410156 23.746094-11.492188 36.40625-15.097656 7.089844-2.019532 12.132812-8.023438 12.847656-15.300782l5.6875-57.84375c.140625-1.429687 1.328125-2.507812 2.765625-2.507812h51.839844c1.4375 0 2.625 1.078125 2.765625 2.507812l5.6875 57.84375c.714844 7.273438 5.757812 13.28125 12.847656 15.300782 12.660156 3.605468 24.910156 8.6875 36.410156 15.097656 6.371094 3.554688 14.164063 2.835938 19.855469-1.832031l44.871094-36.839844c1.109375-.910156 2.710937-.835937 3.726563.183594l36.65625 36.652343c1.015624 1.019532 1.09375 2.621094.183593 3.730469l-36.839843 44.871094c-4.667969 5.6875-5.390626 13.480469-1.832032 19.855469 6.410156 11.5 11.492188 23.75 15.097656 36.410156 2.019532 7.089844 8.023438 12.132812 15.300782 12.847656l57.84375 5.6875c1.429687.140625 2.507812 1.328125 2.507812 2.765625v51.839844c0 1.433594-1.078125 2.625-2.507812 2.765625l-57.84375 5.683594c-7.273438.71875-13.28125 5.761718-15.300782 12.847656-3.605468 12.664062-8.6875 24.914062-15.097656 36.410156-3.558594 6.378906-2.835937 14.171875 1.832032 19.855469l36.839843 44.871094c.910157 1.113281.832031 2.714843-.183593 3.730469l-36.65625 36.65625c-1.015626 1.015624-2.617188 1.09375-3.726563.183593l-44.871094-36.839843c-5.6875-4.671876-13.484375-5.390626-19.855469-1.832032-11.5 6.410156-23.75 11.488282-36.410156 15.097656-7.089844 2.019532-12.132812 8.023438-12.847656 15.300782l-5.6875 57.84375c-.140625 1.429687-1.328125 2.507812-2.765625 2.507812h-51.839844c-1.4375 0-2.625-1.078125-2.765625-2.507812l-5.6875-57.847656c-.714844-7.273438-5.757812-13.277344-12.847656-15.296876-12.660156-3.605468-24.910156-8.6875-36.40625-15.097656-6.378906-3.558594-14.171875-2.835937-19.859375 1.832032l-8.117187 6.664062c-3.203126 2.628906-3.667969 7.355469-1.039063 10.558594s7.355469 3.664062 10.554687 1.035156l8.121094-6.664062c.875-.71875 2.097656-.851563 3.035156-.324219 12.507813 6.972656 25.832032 12.5 39.605469 16.421875 1.121094.320312 1.917969 1.238281 2.027344 2.339844l5.683594 57.847656c.898437 9.140625 8.507812 16.039062 17.695312 16.039062h51.839844c9.1875 0 16.796875-6.898437 17.691406-16.042968l5.6875-57.84375c.105469-1.101563.902344-2.019532 2.027344-2.339844 13.769531-3.921875 27.097656-9.449219 39.605469-16.425782.9375-.523437 2.15625-.390624 3.035156.328126l44.871094 36.839843c7.101562 5.828125 17.355468 5.324219 23.851562-1.171875l36.652344-36.652344c6.5-6.5 7.003906-16.753906 1.171875-23.855468l-36.839844-44.871094c-.71875-.875-.847656-2.09375-.324219-3.03125 6.972657-12.507812 12.5-25.835938 16.421876-39.609375.320312-1.121094 1.242187-1.917969 2.34375-2.027344l57.84375-5.683593c9.144531-.898438 16.039062-8.507813 16.039062-17.695313v-51.835937c0-9.191407-6.894531-16.800782-16.039062-17.699219zm0 0"/><path d="m107.5 256c0 81.882812 66.617188 148.5 148.5 148.5 34.421875 0 67.972656-12.046875 94.476562-33.921875 3.191407-2.636719 3.644532-7.363281 1.007813-10.558594-2.636719-3.195312-7.363281-3.644531-10.558594-1.011719-23.820312 19.664063-53.980469 30.492188-84.925781 30.492188-73.609375 0-133.5-59.886719-133.5-133.5s59.890625-133.5 133.5-133.5c73.613281 0 133.5 59.886719 133.5 133.5 0 29.417969-9.386719 57.320312-27.144531 80.691406-2.507813 3.296875-1.867188 8.003906 1.433593 10.507813 3.296876 2.507812 8 1.863281 10.507813-1.433594 19.761719-26 30.203125-57.042969 30.203125-89.765625 0-81.882812-66.617188-148.5-148.5-148.5s-148.5 66.617188-148.5 148.5zm0 0"/><path d="m256 141.296875c-63.246094 0-114.703125 51.457031-114.703125 114.703125s51.457031 114.703125 114.703125 114.703125c63.25 0 114.703125-51.457031 114.703125-114.703125s-51.453125-114.703125-114.703125-114.703125zm0 214.40625c-54.976562 0-99.703125-44.726563-99.703125-99.703125s44.726563-99.703125 99.703125-99.703125 99.703125 44.726563 99.703125 99.703125-44.726563 99.703125-99.703125 99.703125zm0 0"/><path d="m301.988281 291.804688h-35.53125v-.167969c0-4.140625-3.359375-7.5-7.5-7.5-4.144531 0-7.5 3.359375-7.5 7.5v.167969h-41.441406c-4.144531 0-7.5 3.355468-7.5 7.5 0 4.144531 3.355469 7.5 7.5 7.5h41.441406v.167968c0 4.140625 3.355469 7.5 7.5 7.5 4.140625 0 7.5-3.359375 7.5-7.5v-.167968h35.53125c4.140625 0 7.5-3.355469 7.5-7.5 0-4.144532-3.359375-7.5-7.5-7.5zm0 0"/><path d="m301.988281 248.5h-6.53125v-.167969c0-4.140625-3.359375-7.5-7.5-7.5-4.144531 0-7.5 3.359375-7.5 7.5v.167969h-70.441406c-4.144531 0-7.5 3.355469-7.5 7.5s3.355469 7.5 7.5 7.5h70.441406v.167969c0 4.140625 3.355469 7.5 7.5 7.5 4.140625 0 7.5-3.359375 7.5-7.5v-.167969h6.53125c4.140625 0 7.5-3.355469 7.5-7.5s-3.359375-7.5-7.5-7.5zm0 0"/><path d="m301.988281 205.195312h-60.152343v-.167968c0-4.140625-3.359376-7.5-7.5-7.5-4.144532 0-7.5 3.359375-7.5 7.5v.167968h-16.820313c-4.144531 0-7.5 3.355469-7.5 7.5 0 4.144532 3.355469 7.5 7.5 7.5h16.820313v.167969c0 4.140625 3.355468 7.5 7.5 7.5 4.140624 0 7.5-3.359375 7.5-7.5v-.167969h60.152343c4.140625 0 7.5-3.355468 7.5-7.5 0-4.144531-3.359375-7.5-7.5-7.5zm0 0"/><path d="m255.988281 77.433594h.066407c4.113281 0 7.464843-3.3125 7.5-7.429688.039062-4.144531-3.289063-7.53125-7.433594-7.570312h-.109375c-.023438 0-.042969 0-.066407 0-4.109374 0-7.460937 3.3125-7.5 7.433594-.035156 4.144531 3.292969 7.53125 7.433594 7.566406zm0 0"/><path d="m256.015625 434.566406c-.023437 0-.046875 0-.070313 0-4.109374 0-7.460937 3.3125-7.5 7.429688-.035156 4.144531 3.292969 7.53125 7.433594 7.570312h.109375.070313c4.109375 0 7.460937-3.3125 7.496094-7.433594.039062-4.144531-3.289063-7.53125-7.433594-7.566406zm0 0"/><path d="m442 263.554688h.066406c4.113282 0 7.460938-3.3125 7.5-7.433594v-.109375c.039063-4.140625-3.289062-7.527344-7.433594-7.566407-.023437 0-.042968 0-.066406 0-4.113281 0-7.460937 3.316407-7.5 7.433594v.109375c-.039062 4.140625 3.289063 7.53125 7.433594 7.566407zm0 0"/><path d="m70.003906 248.445312c-.023437 0-.046875 0-.070312 0-4.109375 0-7.460938 3.3125-7.496094 7.433594l-.003906.109375c-.035156 4.140625 3.292968 7.527344 7.433594 7.566407h.070312c4.109375 0 7.460938-3.316407 7.496094-7.433594l.003906-.109375c.035156-4.140625-3.292969-7.53125-7.433594-7.566407zm0 0"/></svg>