<svg height="512pt" viewBox="0 0 512.001 512" width="512pt" xmlns="http://www.w3.org/2000/svg"><path d="m355.378906 318.925781 40.058594 40.058594-36.371094 36.371094-40.058594-40.058594zm0 0" fill="#b7c1c6"/><path d="m499.785156 473.640625-26.066406 26.070313c-6.285156 6.28125-16.472656 6.28125-22.757812 0l-90.75-90.753907c-6.28125-6.28125-6.28125-16.46875 0-22.753906l26.070312-26.070313c6.285156-6.28125 16.472656-6.28125 22.753906 0l90.75 90.753907c6.285156 6.28125 6.285156 16.46875 0 22.753906zm0 0" fill="#5f9eeb"/><path d="m409.039062 360.132812 90.746094 90.75c6.285156 6.28125 6.285156 16.46875 0 22.753907l-15.515625 15.515625c6.285157-6.28125 6.285157-16.472656 0-22.753906l-90.746093-90.746094c-6.285157-6.285156-16.472657-6.285156-22.757813 0l15.519531-15.519532c6.28125-6.28125 16.472656-6.28125 22.753906 0zm0 0" fill="#3a82d0"/><path d="m396.289062 201.8125c0 107.363281-87.035156 194.394531-194.394531 194.394531-107.363281 0-194.394531-87.03125-194.394531-194.394531 0-107.359375 87.03125-194.390625 194.394531-194.390625 107.359375 0 194.394531 87.03125 194.394531 194.390625zm0 0" fill="#5f9eeb"/><path d="m201.894531 369.5c-44.789062 0-86.898437-17.445312-118.570312-49.113281-65.378907-65.382813-65.378907-171.761719 0-237.140625 31.671875-31.671875 73.78125-49.113282 118.570312-49.113282 44.789063 0 86.898438 17.441407 118.570313 49.113282 65.378906 65.378906 65.378906 171.757812 0 237.140625-31.671875 31.667969-73.78125 49.113281-118.570313 49.113281zm0 0" fill="#3a82d0"/><path d="m357.578125 201.8125c0 85.984375-69.703125 155.683594-155.683594 155.683594s-155.683593-69.699219-155.683593-155.683594c0-85.980469 69.703124-155.679688 155.683593-155.679688s155.683594 69.699219 155.683594 155.679688zm0 0" fill="#9ff4e4"/><path d="m113.175781 228.535156h176.777344l4.664063-22.742187c12.074218-58.902344-32.925782-114.0625-93.050782-114.0625-60.128906 0-105.125 55.160156-93.050781 114.0625zm0 0" fill="#627687"/><path d="m299.8125 237.4375c0 12.421875-10.070312 22.492188-22.492188 22.492188-12.425781 0-22.496093-10.070313-22.496093-22.492188 0-12.425781 10.070312-22.496094 22.496093-22.496094 12.421876 0 22.492188 10.070313 22.492188 22.496094zm0 0" fill="#f8c298"/><path d="m148.304688 237.4375c0 12.421875-10.070313 22.492188-22.496094 22.492188-12.421875 0-22.492188-10.070313-22.492188-22.492188 0-12.425781 10.070313-22.496094 22.492188-22.496094 12.425781 0 22.496094 10.070313 22.496094 22.496094zm0 0" fill="#f8c298"/><path d="m201.566406 312.777344c-30.578125 0-56.371094-22.769532-60.160156-53.113282l-11.191406-89.585937h142.699218l-11.191406 89.585937c-3.789062 30.339844-29.582031 53.113282-60.15625 53.113282zm0 0" fill="#ffd6c0"/><path d="m121.242188 193.976562s30.804687 8.699219 59.097656-11.953124c0 0 63.179687 44.796874 124.652344 1.402343 3.121093-2.199219 3.039062-6.847656-.179688-8.902343l-38.1875-24.339844h-145.382812zm0 0" fill="#627687"/><path d="m429.734375 92.730469c0 34.933593-28.316406 63.25-63.246094 63.25-34.933593 0-63.25-28.316407-63.25-63.25 0-34.929688 28.316407-63.246094 63.25-63.246094 34.929688 0 63.246094 28.316406 63.246094 63.246094zm0 0" fill="#eb5777"/><path d="m505.089844 445.582031-49.988282-49.988281c-2.929687-2.929688-7.675781-2.929688-10.605468 0-2.929688 2.929688-2.929688 7.679688 0 10.605469l49.988281 49.988281c1.621094 1.625 2.515625 3.78125 2.515625 6.074219s-.894531 4.453125-2.515625 6.074219l-26.070313 26.070312c-3.347656 3.351562-8.796874 3.347656-12.144531 0l-90.753906-90.75c-3.347656-3.351562-3.347656-8.800781 0-12.148438l26.070313-26.070312c3.347656-3.347656 8.800781-3.347656 12.148437 0l17.667969 17.667969c2.929687 2.929687 7.675781 2.929687 10.605468 0 2.929688-2.929688 2.929688-7.675781 0-10.605469l-17.667968-17.667969c-5.242188-5.238281-12.351563-7.484375-19.203125-6.753906l-28.921875-28.917969c16.996094-23.738281 28.625-50.867187 34.078125-79.890625.765625-4.070312-1.914063-7.992187-5.988281-8.757812-4.0625-.765625-7.988282 1.914062-8.753907 5.988281-6.957031 37.027344-24.765625 70.730469-51.503906 97.46875-35.296875 35.296875-82.230469 54.738281-132.152344 54.738281s-96.855469-19.4375-132.152343-54.738281c-35.300782-35.300781-54.742188-82.234375-54.742188-132.15625 0-49.917969 19.441406-96.851562 54.742188-132.152344 64.667968-64.667968 166.949218-72.757812 240.6875-20.015625-4.859376 6.304688-8.675782 13.445313-11.199219 21.171875-29.636719-22.078125-65.855469-33.414062-103.175781-32.078125-41.359376 1.46875-80.265626 18.40625-109.546876 47.691407-27.640624 27.636718-44.453124 64.300781-47.34375 103.242187-.304687 4.128906 2.796876 7.726563 6.925782 8.035156.1875.011719.375.019531.5625.019531 3.890625 0 7.179687-3.003906 7.472656-6.945312 2.625-35.355469 17.890625-68.648438 42.988281-93.746094 26.589844-26.589844 61.917969-41.96875 99.476563-43.308594 36.332031-1.289062 71.488281 10.617188 99.378906 33.585938-.136719 1.792969-.230469 3.59375-.230469 5.421875 0 31.152344 20.25 57.644531 48.269531 67.0625 15.386719 52.1875 1.175782 108.292969-37.332031 146.800781-57.773437 57.777344-151.785156 57.777344-209.5625 0-23.109375-23.113281-37.644531-52.40625-42.035156-84.722656-.558594-4.101562-4.332031-6.980469-8.441406-6.421875-4.105469.558594-6.980469 4.335937-6.421875 8.441406 4.835937 35.59375 20.84375 67.859375 46.292968 93.308594 31.8125 31.8125 73.601563 47.71875 115.386719 47.71875 41.789063 0 83.578125-15.90625 115.390625-47.71875 40.527344-40.527344 56.617188-98.753906 43.167969-153.996094 1.992187.167969 4 .273438 6.035156.273438 6.164063 0 12.144531-.796875 17.847657-2.285157 3.1875 14.386719 4.671874 29.121094 4.414062 43.898438-.074219 4.140625 3.226562 7.558594 7.367188 7.628906h.132812c4.082031 0 7.425781-3.269531 7.496094-7.367187.292968-16.691407-1.480469-33.339844-5.257813-49.554688 22.96875-11.703125 38.746094-35.570312 38.746094-63.066406 0-39.011719-31.734375-70.75-70.746094-70.75-17.359375 0-33.269531 6.296875-45.59375 16.707031-79.792969-58.359375-191.390625-50.003906-261.761719 20.363282-38.132812 38.132812-59.132812 88.832031-59.132812 142.757812 0 53.929688 21 104.628906 59.132812 142.761719 38.132813 38.132812 88.832032 59.132812 142.761719 59.132812 42.683594 0 83.339844-13.167969 117.351563-37.5625l28.910156 28.914063c-.730469 6.851562 1.511719 13.960937 6.753906 19.203125l90.75 90.75c4.601563 4.601562 10.640625 6.898437 16.679688 6.898437 6.039062 0 12.085937-2.296875 16.683594-6.898437l26.066406-26.066407c4.457031-4.457031 6.910156-10.378906 6.910156-16.683593 0-6.300781-2.453125-12.222657-6.910156-16.679688zm-82.855469-352.851562c0 30.742187-25.007813 55.75-55.746094 55.75-30.742187 0-55.75-25.007813-55.75-55.75 0-30.738281 25.007813-55.746094 55.75-55.746094 30.738281 0 55.746094 25.007813 55.746094 55.746094zm-77.578125 251.84375c4.320312-4.320313 8.421875-8.8125 12.300781-13.457031l23.867188 23.867187-25.765625 25.765625-23.867188-23.871094c4.636719-3.878906 9.136719-7.976562 13.464844-12.304687zm0 0"/><path d="m125.808594 267.429688c3.089844 0 6.148437-.503907 9.066406-1.429688 6.492188 31.296875 34.242188 54.277344 66.6875 54.277344 32.449219 0 60.199219-22.980469 66.691406-54.277344 2.917969.925781 5.976563 1.429688 9.0625 1.429688 16.539063 0 29.996094-13.453126 29.996094-29.992188 0-7.574219-2.828125-14.496094-7.472656-19.78125l2.121094-10.359375c.957031-4.671875 1.574218-9.410156 1.882812-14.125 1.84375-1.152344 3.671875-2.347656 5.472656-3.617187 3.519532-2.484376 5.5625-6.539063 5.457032-10.835938-.101563-4.285156-2.316407-8.214844-5.933594-10.519531l-7.429688-4.738281c-10.75-46.097657-52.210937-79.230469-99.847656-79.230469-30.921875 0-59.863281 13.742187-79.410156 37.703125-19.546875 23.957031-27.195313 55.074218-20.988282 85.363281l2.125 10.359375c-4.648437 5.285156-7.476562 12.207031-7.476562 19.78125.003906 16.539062 13.457031 29.992188 29.996094 29.992188zm-14.992188-29.992188c0-8.269531 6.726563-14.996094 14.992188-14.996094 1.171875 0 2.320312.148438 3.441406.410156l3.480469 27.882813c-2.117188 1.109375-4.46875 1.695313-6.921875 1.695313-8.265625 0-14.992188-6.726563-14.992188-14.992188zm90.746094 67.839844c-26.738281 0-49.398438-20.007813-52.714844-46.542969l-6.941406-55.574219c11.023438-.59375 24.902344-3.488281 38.570312-12.15625 6.574219 3.933594 19.945313 10.996094 37.347657 15.277344 9.652343 2.375 19.199219 3.554688 28.550781 3.554688 4.765625 0 9.476562-.328126 14.132812-.9375l-6.226562 49.835937c-3.3125 26.535156-25.976562 46.542969-52.71875 46.542969zm75.757812-52.847656c-2.457031 0-4.804687-.585938-6.921874-1.695313l3.480468-27.882813c1.121094-.261718 2.265625-.410156 3.441406-.410156 8.265626 0 14.992188 6.726563 14.992188 14.996094 0 8.265625-6.726562 14.992188-14.992188 14.992188zm9.949219-48.144532-.933593 4.542969c-2.847657-.902344-5.875-1.386719-9.015626-1.386719-.507812 0-1.015624.011719-1.519531.035156l.226563-1.804687c3.976562-1.144531 7.894531-2.527344 11.746094-4.140625-.15625.917969-.316407 1.839844-.503907 2.753906zm-153.496093-72.871094c16.6875-20.453124 41.394531-32.183593 67.792968-32.183593 34.824219 0 65.78125 20.742187 79.726563 51.410156l-10.636719-6.78125c-3.492188-2.226563-8.128906-1.199219-10.355469 2.292969-2.226562 3.492187-1.199219 8.128906 2.292969 10.355468l35.441406 22.589844c-22.835937 15.132813-48.433594 19.417969-76.128906 12.738282-21.949219-5.296876-37.089844-15.832032-37.230469-15.929688-2.628906-1.867188-6.152343-1.84375-8.757812.058594-19.800781 14.453125-41.074219 12.835937-49.304688 11.472656-4.085937-.675781-7.949219 2.085938-8.625 6.171875-.679687 4.085937 2.085938 7.949219 6.171875 8.628906.761719.125 1.625.253907 2.558594.375l.609375 4.867188c-.503906-.027344-1.011719-.039063-1.519531-.039063-3.140625 0-6.167969.484375-9.015625 1.386719l-.929688-4.542969c-5.304687-25.859375 1.226563-52.417968 17.910157-72.871094zm0 0"/><path d="m176.136719 235.941406-.097657-3.566406c-.113281-4.140625-3.578124-7.410156-7.703124-7.289062-4.140626.113281-7.40625 3.5625-7.292969 7.703124l.097656 3.566407c.113281 4.070312 3.445313 7.292969 7.492187 7.292969.070313 0 .140626 0 .210938-.003907 4.140625-.113281 7.40625-3.5625 7.292969-7.703125zm0 0"/><path d="m234.285156 225.085938c-4.140625.113281-7.402344 3.5625-7.292968 7.703124l.101562 3.566407c.109375 4.070312 3.445312 7.292969 7.492188 7.292969.066406 0 .140624 0 .207031-.003907 4.140625-.113281 7.40625-3.5625 7.292969-7.703125l-.097657-3.566406c-.113281-4.140625-3.550781-7.410156-7.703125-7.289062zm0 0"/><path d="m226.011719 251.425781c-3.355469-2.429687-8.042969-1.683593-10.476563 1.675781-3.238281 4.472657-8.464844 7.144532-13.972656 7.144532-5.503906 0-10.730469-2.671875-13.972656-7.144532-2.429688-3.355468-7.113282-4.105468-10.472656-1.675781-3.351563 2.429688-4.101563 7.117188-1.675782 10.472657 6.054688 8.359374 15.820313 13.347656 26.121094 13.347656 10.304688 0 20.066406-4.988282 26.121094-13.347656 2.429687-3.355469 1.679687-8.042969-1.671875-10.472657zm0 0"/><path d="m337.367188 100.230469h3.820312v3.824219c0 4.140624 3.359375 7.5 7.5 7.5 4.144531 0 7.5-3.359376 7.5-7.5v-3.824219h3.820312c4.144532 0 7.5-3.355469 7.5-7.5 0-4.140625-3.355468-7.5-7.5-7.5h-3.820312v-3.820313c0-4.140625-3.355469-7.5-7.5-7.5-4.140625 0-7.5 3.359375-7.5 7.5v3.820313h-3.820312c-4.144532 0-7.5 3.359375-7.5 7.5 0 4.144531 3.359374 7.5 7.5 7.5zm0 0"/><path d="m380.851562 84.976562h.042969v19.464844c-4.007812.15625-7.210937 3.441406-7.210937 7.488282 0 4.140624 3.355468 7.5 7.5 7.5h14.421875c4.144531 0 7.5-3.359376 7.5-7.5 0-4.046876-3.203125-7.332032-7.210938-7.488282v-30.90625c0-2.625-1.371093-5.054687-3.613281-6.414062s-5.03125-1.449219-7.355469-.234375l-7.546875 3.9375c-3.671875 1.914062-5.097656 6.445312-3.179687 10.117187 1.335937 2.566406 3.949219 4.035156 6.652343 4.035156zm0 0"/></svg>