<svg height="512pt" viewBox="-64 0 511 512" width="512pt" xmlns="http://www.w3.org/2000/svg"><path d="m279.453125 504.5h-271.453125v-119.953125c0-35.542969 28.816406-64.359375 64.359375-64.359375h142.734375c35.542969 0 64.359375 28.816406 64.359375 64.359375zm0 0" fill="#4fceb7"/><path d="m97.382812 320.1875h95.773438v184.3125h-95.773438zm0 0" fill="#ebeef2"/><path d="m279.449219 384.550781v119.945313h-21.929688v-119.945313c0-35.542969-28.824219-64.363281-64.363281-64.363281h21.941406c35.539063 0 64.351563 28.820312 64.351563 64.363281zm0 0" fill="#3db4a0"/><path d="m145.269531 356.425781c-12.117187 0-21.941406-9.820312-21.941406-21.9375v-61.539062h43.875v61.539062c.003906 12.117188-9.820313 21.9375-21.933594 21.9375zm0 0" fill="#e39f6e"/><path d="m29.207031 187.132812h232.121094l6.121094-29.863281c15.855469-77.339843-43.230469-149.769531-122.179688-149.769531-78.953125 0-138.039062 72.429688-122.183593 149.769531zm0 0" fill="#eb5777"/><path d="m274.273438 198.820312c0 16.3125-13.222657 29.535157-29.535157 29.535157s-29.539062-13.222657-29.539062-29.535157 13.226562-29.539062 29.539062-29.539062 29.535157 13.226562 29.535157 29.539062zm0 0" fill="#e39f6e"/><path d="m75.335938 198.820312c0 16.3125-13.226563 29.535157-29.539063 29.535157s-29.535156-13.222657-29.535156-29.535157 13.222656-29.539062 29.535156-29.539062 29.539063 13.226562 29.539063 29.539062zm0 0" fill="#e39f6e"/><path d="m145.269531 297.746094c-40.152343 0-74.015625-29.898438-78.992187-69.738282l-14.695313-117.632812h187.371094l-14.691406 117.632812c-4.976563 39.839844-38.84375 69.738282-78.992188 69.738282zm0 0" fill="#f8c298"/><path d="m34.933594 118.507812s19.8125 19.648438 73.15625 21.078126c3.378906.089843 6.179687-2.621094 6.179687-6v-7.921876s19.382813 12.722657 60.464844 13.914063c3.390625.097656 6.199219-2.609375 6.199219-6v-4.492187s15.984375 9.757812 63.886718 10.53125c3.355469.054687 6.113282-2.644532 6.113282-6v-33.285157h-216zm0 0" fill="#eb5777"/><path d="m376.269531 328.636719c0 43.929687-35.613281 79.542969-79.546875 79.542969-43.929687 0-79.542968-35.613282-79.542968-79.542969 0-43.933594 35.613281-79.546875 79.542968-79.546875 43.933594 0 79.546875 35.613281 79.546875 79.546875zm0 0" fill="#5f9eeb"/><path d="m329.972656 313.710938h-18.324218v-18.324219c0-5.523438-4.476563-10-10-10h-9.847657c-5.523437 0-10 4.476562-10 10v18.324219h-18.328125c-5.523437 0-10 4.476562-10 10v9.847656c0 5.523437 4.476563 10 10 10h18.328125v18.324218c0 5.523438 4.476563 10 10 10h9.84375c5.523438 0 10-4.476562 10-10v-18.324218h18.328125c5.519532 0 10-4.476563 10-10v-9.84375c0-5.523438-4.476562-10.003906-10-10.003906zm0 0" fill="#ebeef2"/><path d="m279.453125 465.871094c-4.144531 0-7.5 3.359375-7.5 7.5v31.128906c0 4.140625 3.355469 7.5 7.5 7.5s7.5-3.359375 7.5-7.5v-31.128906c0-4.140625-3.355469-7.5-7.5-7.5zm0 0"/><path d="m101.699219 184.949219c-4.140625.113281-7.402344 3.5625-7.292969 7.703125l.128906 4.683594c.113282 4.070312 3.445313 7.292968 7.492188 7.292968.070312 0 .140625 0 .210937-.003906 4.140625-.113281 7.40625-3.5625 7.292969-7.699219l-.128906-4.683593c-.113282-4.140626-3.5625-7.414063-7.703125-7.292969zm0 0"/><path d="m188.628906 204.628906c.066406 0 .136719 0 .207032-.003906 4.140624-.113281 7.40625-3.5625 7.292968-7.699219l-.128906-4.683593c-.113281-4.140626-3.5625-7.414063-7.703125-7.292969-4.140625.113281-7.402344 3.5625-7.289063 7.703125l.125 4.683594c.113282 4.070312 3.445313 7.292968 7.496094 7.292968zm0 0"/><path d="m177.664062 229.5625c2.429688-3.355469 1.679688-8.042969-1.675781-10.472656-3.355469-2.429688-8.042969-1.679688-10.472656 1.675781-4.695313 6.484375-12.265625 10.355469-20.246094 10.355469-7.984375 0-15.550781-3.871094-20.25-10.355469-2.425781-3.355469-7.117187-4.105469-10.472656-1.675781-3.355469 2.429687-4.105469 7.117187-1.675781 10.472656 7.507812 10.367188 19.617187 16.558594 32.394531 16.558594s24.890625-6.1875 32.398437-16.558594zm0 0"/><path d="m60.425781 396.53125c-4.140625 0-7.5 3.359375-7.5 7.5v100.46875c0 4.140625 3.359375 7.5 7.5 7.5s7.5-3.359375 7.5-7.5v-100.46875c0-4.140625-3.359375-7.5-7.5-7.5zm0 0"/><path d="m227.027344 396.53125c-4.144532 0-7.5 3.359375-7.5 7.5v100.46875c0 4.140625 3.355468 7.5 7.5 7.5 4.140625 0 7.5-3.359375 7.5-7.5v-100.46875c0-4.140625-3.359375-7.5-7.5-7.5zm0 0"/><path d="m367.710938 278.289062c-2.398438-3.375-7.078126-4.167968-10.457032-1.769531-3.378906 2.398438-4.171875 7.078125-1.773437 10.457031 8.691406 12.234376 13.289062 26.640626 13.289062 41.660157 0 39.722656-32.320312 72.042969-72.046875 72.042969-39.726562 0-72.042968-32.320313-72.042968-72.042969 0-39.726563 32.316406-72.046875 72.042968-72.046875 13.074219 0 25.882813 3.546875 37.042969 10.25 3.546875 2.132812 8.15625.984375 10.289063-2.566406 2.136718-3.550782.984374-8.160157-2.566407-10.292969-13.488281-8.105469-28.96875-12.390625-44.765625-12.390625-42.550781 0-78.0625 30.691406-85.574218 71.097656h-36.445313v-12.597656c28.78125-10.378906 50.835937-35.535156 56.34375-66.835938 4.304687 1.714844 8.921875 2.601563 13.691406 2.601563 20.421875 0 37.035157-16.613281 37.035157-37.035157 0-9.765624-3.804688-18.65625-10.003907-25.28125l3.027344-14.761718c8.1875-39.949219-2.21875-80.734375-28.554687-111.902344-2.675782-3.164062-7.40625-3.5625-10.570313-.890625-3.164063 2.675781-3.5625 7.40625-.886719 10.570313 23.347656 27.636718 32.574219 63.796874 25.316406 99.207031l-1.765624 8.621093c-4.214844-1.671874-8.800782-2.597656-13.597657-2.597656-1.582031 0-3.144531.109375-4.6875.300782l1.878907-15.023438c.910156.019531 1.832031.039062 2.765624.054688h.230469c3.566407 0 6.925781-1.375 9.476563-3.882813 2.601562-2.558594 4.03125-5.972656 4.03125-9.617187v-15.109376c0-4.144531-3.355469-7.5-7.5-7.5-4.144532 0-7.5 3.355469-7.5 7.5v13.582032c-42.097656-.863282-57.703125-8.929688-58.636719-9.4375-2.300781-1.464844-5.128906-1.515625-7.53125-.214844-2.414063 1.316406-3.832031 3.898438-3.832031 6.648438v2.941406c-37-1.355469-54.910156-12.542969-55.050782-12.632813-2.304687-1.511719-5.253906-1.640625-7.679687-.328125-2.425781 1.308594-3.9375 3.839844-3.9375 6.597656v6.375c-30.117187-1.015624-48.609375-7.960937-58.867187-13.660156-3.617188-2.011718-8.183594-.710937-10.199219 2.910156-2.011719 3.621094-.707031 8.1875 2.914062 10.199219 1.902344 1.058594 4.050781 2.152344 6.453125 3.25l3.414063 27.347657c-1.542969-.195313-3.105469-.304688-4.683594-.304688-4.800781 0-9.386719.929688-13.597656 2.597656l-1.765625-8.617187c-7.105469-34.648438 1.644531-70.234375 24-97.640625 22.359375-27.402344 55.464844-43.121094 90.835937-43.121094 24.085938 0 47.183594 7.210938 66.789063 20.855469 3.398437 2.363281 8.074218 1.527343 10.4375-1.875 2.367187-3.398438 1.527344-8.074219-1.871094-10.441407-22.132812-15.398437-48.1875-23.539062-75.355469-23.539062-39.894531 0-77.238281 17.730469-102.457031 48.640625-25.214844 30.914063-35.085938 71.054687-27.074219 110.136719l3.027344 14.761718c-6.199219 6.625-10.003906 15.515626-10.003906 25.28125 0 20.421876 16.613281 37.035157 37.035156 37.035157 4.765625 0 9.382813-.890625 13.691406-2.605469 5.503907 31.300781 27.5625 56.457031 56.34375 66.839844v12.597656h-43.472656c-39.621094 0-71.859375 32.238281-71.859375 71.859375v119.953125c0 4.140625 3.359375 7.5 7.5 7.5s7.5-3.359375 7.5-7.5v-119.953125c0-31.351563 25.507812-56.859375 56.859375-56.859375h17.523437v176.8125c0 4.140625 3.355469 7.5 7.5 7.5 4.140626 0 7.5-3.359375 7.5-7.5v-176.8125h10.949219v6.800781c0 16.234375 13.207031 29.4375 29.4375 29.4375 16.234375 0 29.4375-13.203125 29.4375-29.4375v-6.800781h10.949219v176.8125c0 4.140625 3.359375 7.5 7.5 7.5 4.144531 0 7.5-3.359375 7.5-7.5v-176.8125h9.035156c0 .316406-.011718.632812-.011718.949219 0 39.394531 26.308593 72.753906 62.273437 83.449219v27.734374c0 4.144532 3.359375 7.5 7.5 7.5 4.144531 0 7.5-3.355468 7.5-7.5v-24.691406c3.210937.359375 6.46875.554688 9.773437.554688 47.996094 0 87.042969-39.050782 87.042969-87.046875 0-18.152344-5.554687-35.558594-16.058593-50.347657zm-122.972657-101.503906c12.152344 0 22.035157 9.886719 22.035157 22.035156 0 12.152344-9.882813 22.039063-22.035157 22.039063-4.171875 0-8.136719-1.152344-11.609375-3.320313l4.960938-39.730468c2.132812-.675782 4.359375-1.023438 6.648437-1.023438zm-220.976562 22.035156c0-12.152343 9.886719-22.039062 22.035156-22.039062 2.285156 0 4.511719.351562 6.648437 1.027344l4.964844 39.730468c-3.476562 2.167969-7.445312 3.316407-11.613281 3.316407-12.152344 0-22.035156-9.882813-22.035156-22.035157zm49.957031 28.257813-10.804688-86.503906c11.542969 3.367187 26.34375 6.007812 44.957032 6.507812 3.699218.101563 7.179687-1.261719 9.820312-3.832031 1.714844-1.671875 2.925782-3.710938 3.5625-5.949219 10.328125 4.058594 27.941406 9.042969 53.265625 9.773438 3.683594.113281 7.179688-1.25 9.824219-3.820313 1.101562-1.070312 1.996094-2.292968 2.667969-3.621094 7.75 2.46875 20.46875 5.359376 39.886719 6.734376l-10.078126 80.710937c-4.5 36.011719-35.257812 63.167969-71.550781 63.167969s-67.054687-27.15625-71.550781-63.167969zm71.550781 121.847656c-7.960937 0-14.441406-6.476562-14.441406-14.4375v-30.464843c4.707031.789062 9.527344 1.222656 14.441406 1.222656 4.910157 0 9.726563-.433594 14.4375-1.222656v30.464843c0 7.960938-6.476562 14.4375-14.4375 14.4375zm0 0"/><path d="m291.800781 379.386719h9.847657c9.648437 0 17.5-7.851563 17.5-17.5v-10.828125h10.824218c9.648438 0 17.5-7.847656 17.5-17.5v-9.84375c0-9.652344-7.851562-17.5-17.5-17.5h-10.824218v-10.828125c0-9.648438-7.851563-17.5-17.5-17.5h-9.847657c-9.648437 0-17.5 7.851562-17.5 17.5v10.828125h-10.824219c-9.652343 0-17.5 7.847656-17.5 17.5v9.84375c0 9.652344 7.847657 17.5 17.5 17.5h10.824219v10.828125c0 9.648437 7.847657 17.5 17.5 17.5zm-28.324219-43.328125c-1.378906 0-2.5-1.121094-2.5-2.5v-9.84375c0-1.378906 1.121094-2.5 2.5-2.5h18.324219c4.140625 0 7.5-3.359375 7.5-7.5v-18.328125c0-1.378907 1.121094-2.5 2.5-2.5h9.847657c1.378906 0 2.5 1.121093 2.5 2.5v18.328125c0 4.140625 3.355468 7.5 7.5 7.5h18.324218c1.378906 0 2.5 1.121094 2.5 2.5v9.84375c0 1.378906-1.121094 2.5-2.5 2.5h-18.324218c-4.144532 0-7.5 3.359375-7.5 7.5v18.328125c0 1.378906-1.121094 2.5-2.5 2.5h-9.847657c-1.378906 0-2.5-1.121094-2.5-2.5v-18.328125c0-4.140625-3.359375-7.5-7.5-7.5zm0 0"/></svg>