<?xml version="1.0" encoding="iso-8859-1"?>
<!-- Generator: Adobe Illustrator 18.0.0, SVG Export Plug-In . SVG Version: 6.00 Build 0)  -->
<!DOCTYPE svg PUBLIC "-//W3C//DTD SVG 1.1//EN" "http://www.w3.org/Graphics/SVG/1.1/DTD/svg11.dtd">
<svg version="1.1" id="Capa_1" xmlns="http://www.w3.org/2000/svg" xmlns:xlink="http://www.w3.org/1999/xlink" x="0px" y="0px"
	 viewBox="0 0 297 297" style="enable-background:new 0 0 297 297;" xml:space="preserve">
<g>
	<path d="M113.754,246.36c1.359,10.426,10.221,18.593,20.174,18.593h26.12c9.953,0,18.814-8.167,20.161-18.499l9.643-67.771
		l19.815-12.305c2.74-1.7,4.215-4.861,3.76-8.056l-7.387-51.818C203.092,87.093,185.811,71.3,167.515,71.3h-0.676
		c-5.987,2.986-12.725,4.675-19.851,4.675c-7.126,0-13.864-1.688-19.851-4.675h-0.676c-18.296,0-35.578,15.793-38.538,35.279
		l-7.374,51.744c-0.455,3.194,1.018,6.355,3.758,8.056l19.816,12.305L113.754,246.36z"/>
	<ellipse cx="146.988" cy="30.984" rx="30.784" ry="30.984"/>
	<path d="M198.785,215.314l-4.702,33.046c-1.095,8.225-5.088,15.867-11.252,21.531c-6.364,5.847-14.455,9.066-22.783,9.066h-26.12
		c-8.34,0-16.438-3.229-22.801-9.093c-6.156-5.675-10.149-13.341-11.247-21.6l-4.608-32.386
		c-31.52,6.284-55.805,18.738-55.805,38.108C39.467,283.54,95.986,297,148.5,297s109.033-13.46,109.033-43.013
		C257.533,234.018,231.725,221.399,198.785,215.314z"/>
</g>
<g>
</g>
<g>
</g>
<g>
</g>
<g>
</g>
<g>
</g>
<g>
</g>
<g>
</g>
<g>
</g>
<g>
</g>
<g>
</g>
<g>
</g>
<g>
</g>
<g>
</g>
<g>
</g>
<g>
</g>
</svg>
