<svg height="20pt" viewBox="0 0 512 512" width="20pt" xmlns="http://www.w3.org/2000/svg" xmlns:xlink="http://www.w3.org/1999/xlink"><linearGradient id="a" gradientUnits="userSpaceOnUse" x1="0" x2="512" y1="256" y2="256"><stop offset="0" stop-color="#00f38d"/><stop offset="1" stop-color="#009eff"/></linearGradient><path d="m512 256c0 141.386719-114.613281 256-256 256s-256-114.613281-256-256 114.613281-256 256-256 256 114.613281 256 256zm0 0" fill="url(#a)"/><g fill="#fff"><path d="m192.488281 372.871094v-87.328125h-30v87.328125l-17.125-17.121094-21.210937 21.214844 53.335937 53.335937 52.863281-52.863281-21.214843-21.210938zm0 0"/><path d="m176.769531 193.785156c35.417969 0 64.230469 28.8125 64.230469 64.230469h30c0-36.679687-21.066406-68.527344-51.734375-84.089844 8.375-9.695312 13.460937-22.308593 13.460937-36.097656 0-30.484375-24.800781-55.285156-55.285156-55.285156s-55.285156 24.800781-55.285156 55.285156c0 13.566406 4.921875 26 13.0625 35.632813-31.175781 15.382812-52.675781 47.5-52.675781 84.554687h30c0-35.417969 28.8125-64.230469 64.226562-64.230469zm.671875-81.242187c13.945313 0 25.285156 11.34375 25.285156 25.285156s-11.339843 25.285156-25.285156 25.285156c-13.941406 0-25.285156-11.34375-25.285156-25.285156s11.34375-25.285156 25.285156-25.285156zm0 0"/><path d="m377.722656 343.796875c8.378906-9.691406 13.464844-22.308594 13.464844-36.097656 0-30.484375-24.800781-55.285157-55.285156-55.285157-30.488282 0-55.289063 24.800782-55.289063 55.285157 0 13.566406 4.921875 26 13.0625 35.632812-31.175781 15.382813-52.675781 47.503907-52.675781 84.554688h30c0-35.417969 28.8125-64.230469 64.226562-64.230469 35.417969 0 64.230469 28.8125 64.230469 64.230469h30c0-36.679688-21.066406-68.527344-51.734375-84.089844zm-41.824218-61.382813c13.945312 0 25.285156 11.34375 25.285156 25.285157 0 13.941406-11.339844 25.285156-25.285156 25.285156-13.941407 0-25.285157-11.34375-25.285157-25.285156 0-13.941407 11.34375-25.285157 25.285157-25.285157zm0 0"/><path d="m320.898438 139.367188v88.433593h30v-88.914062l17.367187 17.363281 21.210937-21.214844-53.332031-53.335937-52.863281 52.863281 21.210938 21.210938zm0 0"/></g></svg>