<svg id="Capa_1" enable-background="new 0 0 512 512" height="20" viewBox="0 0 512 512" width="20" xmlns="http://www.w3.org/2000/svg"><path d="m24.847 239.972v-2.633c.341-61.022 24.74-118.655 68.701-162.283 43.899-43.564 101.626-67.556 162.548-67.556 1.211 0 2.4.009 3.613.029 60.968.961 118.13 25.43 160.96 68.899 42.876 43.517 66.489 101.131 66.489 162.228z" fill="#d97c40"/><path d="m54.847 237.339c.341-61.022 24.74-118.655 68.702-162.283 40.312-40.006 92.289-63.49 147.69-67.063-3.827-.248-7.671-.405-11.53-.466-1.213-.02-2.402-.028-3.613-.028-60.921 0-118.648 23.992-162.547 67.557-43.962 43.627-68.361 101.26-68.702 162.283v2.633l30-.085v-2.548z" fill="#af602d"/><path d="m477.357 276.218c0 83.676-20.993 105.294-50.979 127.783-25.906 20.833-1.709 46.249-58.204 73.374h-224.35c-56.495-27.124-32.298-52.541-58.204-73.374-29.985-22.489-50.979-44.107-50.979-127.783z" fill="#d97c40"/><path d="m115.621 404.002c-29.985-22.489-50.979-44.107-50.979-127.783h-30c0 83.676 20.993 105.294 50.979 127.783 25.906 20.833 1.709 46.25 58.204 73.374h30c-56.495-27.125-32.298-52.541-58.204-73.374z" fill="#af602d"/><path d="m333.654 425.086h-155.308s-38.774 32.113-38.774 79.414h47.73l68.7-8.771 68.697 8.771h47.729c0-47.3-38.774-79.414-38.774-79.414z" fill="#ffdcce"/><path d="m208.346 425.086h-30s-38.774 32.113-38.774 79.414h30c0-47.3 38.774-79.414 38.774-79.414z" fill="#ffcabd"/><circle cx="457.906" cy="239.809" fill="#ffcabd" r="41.277"/><path d="m406.81 182.026c-49.865-34.208-79.053-95.408-79.053-95.408s-34.756 36.755-97.453 37.118-87.912 34.438-110.401 58.29l-52.785-14.114c-8.281 21.72-12.889 45.174-13.025 69.59v2.306c.621 111.215 93.95 202.484 205.154 200.731 110.014-1.735 198.662-91.457 198.662-201.884 0-19.661-2.824-38.661-8.065-56.63h-43.034z" fill="#ffdcce"/><path d="m85.989 266.008c5.861-7.127 9.381-16.252 9.381-26.2 0-10.1-3.633-19.348-9.656-26.522 1.688-13.102 4.661-25.829 8.784-38.054l-27.38-7.321c-3.788 9.935-6.796 20.235-8.971 30.82-1.334-.13-2.686-.2-4.054-.2-22.796 0-41.277 18.48-41.277 41.276s18.48 41.277 41.277 41.277c1.529 0 3.037-.09 4.523-.252 19.956 91.754 103.468 161.238 200.63 159.706 4.01-.063 7.987-.257 11.937-.551-94.364-7.096-172.263-80.878-185.194-173.979z" fill="#ffcabd"/><path d="m474.196 166.22c-113.861-11.737-175.732 19.35-202.252 38.622-9.523 6.92-22.363 6.92-31.886 0-26.521-19.272-88.391-50.359-202.252-38.622-6.948.716-11.562 7.547-9.661 14.268 13.229 46.761 67.971 201.759 194.945 120.799.2-.138.398-.274.597-.409 19.486-13.272 45.143-13.272 64.629 0 .198.135.397.271.597.409 126.974 80.96 181.716-74.038 194.945-120.799 1.9-6.721-2.715-13.552-9.662-14.268z" fill="#5c586f"/><path d="m58.144 173.487c-.909-3.214-.316-6.446 1.298-9.03-6.996.417-14.203.996-21.637 1.762-6.948.716-11.562 7.547-9.661 14.268 12.107 42.796 58.987 176.246 164.185 136.51-84.276 6.8-123.295-105.019-134.185-143.51z" fill="#423e4f"/><ellipse cx="159.336" cy="242.167" fill="#ffdcce" rx="34.756" ry="57.926" transform="matrix(.364 -.932 .932 .364 -124.205 302.481)"/><ellipse cx="359.159" cy="242.167" fill="#ffdcce" rx="57.926" ry="34.756" transform="matrix(.932 -.364 .364 .932 -63.491 147.261)"/><path d="m305.68 462.832c-13.069.092-31.316 2.914-49.68 14.544-18.364-11.629-36.612-14.452-49.68-14.544-10.485-.074-19.019 8.406-19.019 18.891v22.777h137.398v-22.777c0-10.485-8.534-18.965-19.019-18.891z" fill="#5c586f"/><path d="m226.959 465.252c-7.635-1.754-14.679-2.377-20.639-2.419-10.485-.074-19.019 8.406-19.019 18.891v22.776h30v-22.777c0-7.081 3.901-13.237 9.658-16.471z" fill="#423e4f"/><path d="m159.336 258.443c4.142 0 7.5-3.358 7.5-7.5v-17.551c0-4.142-3.358-7.5-7.5-7.5s-7.5 3.358-7.5 7.5v17.551c0 4.142 3.358 7.5 7.5 7.5z"/><path d="m359.159 258.443c4.142 0 7.5-3.358 7.5-7.5v-17.551c0-4.142-3.358-7.5-7.5-7.5s-7.5 3.358-7.5 7.5v17.551c0 4.142 3.358 7.5 7.5 7.5z"/><path d="m277.081 311.729c-3.118-2.726-7.856-2.408-10.583.711-2.543 2.91-6.37 4.579-10.498 4.579s-7.954-1.669-10.498-4.579c-2.727-3.119-7.464-3.437-10.583-.711s-3.437 7.464-.711 10.583c5.393 6.168 13.335 9.707 21.792 9.707s16.399-3.538 21.792-9.707c2.726-3.12 2.407-7.857-.711-10.583z"/><path d="m27.162 280.45c.721 83.055 22.824 106.186 53.854 129.473 8.163 6.606 10.123 13.595 12.601 22.434 3.996 14.254 8.937 31.811 41.308 48.923-1.785 7.25-2.852 15.011-2.852 23.221 0 4.142 3.358 7.5 7.5 7.5h232.856c4.142 0 7.5-3.358 7.5-7.5 0-8.21-1.067-15.97-2.852-23.221 32.371-17.112 37.312-34.668 41.308-48.923 2.478-8.839 4.437-15.828 12.601-22.434 31.03-23.287 53.132-46.418 53.853-129.473 13.154-8.746 21.845-23.695 21.845-40.641 0-16.183-7.883-31.003-20.941-40.05 2.179-6.494 3.947-12.337 5.331-17.229 1.513-5.347.59-11.052-2.531-15.651-1.768-2.605-4.139-4.662-6.856-6.077-11.599-33.737-30.303-63.887-55.675-89.638-44.22-44.88-103.239-70.142-166.183-71.134-1.253-.021-2.482-.03-3.733-.03-40.376 0-80.314 10.432-115.496 30.167-3.612 2.026-4.898 6.598-2.872 10.21s6.598 4.898 10.21 2.872c32.946-18.48 70.346-28.249 108.158-28.249 1.17 0 2.32.009 3.495.028 58.987.93 114.295 24.604 155.735 66.663 21.791 22.117 38.349 47.674 49.327 76.108-.073-.006-.145-.011-.219-.017-25.084-2-50.341-2.297-75.412.057-34.244-32.581-54.281-74.004-54.494-74.449-2.232-4.666-8.635-5.677-12.206-1.938-.329.345-33.579 34.446-92.06 34.786-49.5.287-77.014 20.259-98.849 42.504-10.895-1.292-21.849-2.063-32.814-2.4-16.43-.505-32.884.023-49.264 1.304-.544.043-1.082.081-1.629.126-.023.002-.045.003-.068.005 11.348-28.914 28.534-54.907 51.195-77.395 7.561-7.503 15.717-14.547 24.244-20.935 3.315-2.484 3.989-7.185 1.505-10.5-2.483-3.314-7.184-3.989-10.5-1.505-9.079 6.802-17.765 14.302-25.816 22.292-26.314 26.115-45.687 56.694-57.665 90.917-2.838 1.417-5.312 3.531-7.142 6.228-3.121 4.6-4.044 10.304-2.531 15.651 1.384 4.892 3.152 10.735 5.331 17.229-13.058 9.047-20.941 23.867-20.941 40.05-.001 16.946 8.69 31.895 21.844 40.641zm80.898 147.858c-2.695-9.613-5.75-20.509-17.738-30.15-.066-.053-.133-.104-.2-.155-27.614-20.711-46.164-40.042-47.853-110.873.017.004.034.007.051.011 3.425.794 6.881 1.332 10.401 1.425 15.189 60.998 57.458 111.606 112.74 138.531-7.5 7.958-18.529 21.67-25.833 39.701-24.566-13.511-27.976-25.675-31.568-38.49zm-61.84-255.347c36.873-3.209 74.379-2.57 110.688 5.131 22.467 4.715 44.628 12.257 64.59 23.705 16.629 9.536 32.199 22.37 51.743 11.103 3.462-1.996 6.597-4.499 9.95-6.666 50.386-32.557 117.268-38.177 175.759-33.835 2.533.188 12.215 1.047 14.476 1.281 2.293.238 3.835 2.565 3.212 4.766-7.605 26.879-18.134 53.335-32.609 77.281-14.179 23.454-33.192 46.016-59.481 56.021-31.183 11.868-65.456.634-92.012-17.07-22.196-15.118-50.878-15.117-73.095.015-26.32 17.927-61.005 28.859-91.989 17.055-24.346-9.277-42.703-29.688-56.444-51.14-16.129-25.178-27.522-53.458-35.648-82.164-.626-2.216.927-4.527 3.214-4.763 2.547-.258 5.096-.498 7.646-.72zm270.979 324.039h-122.398s0-15.266 0-15.277c0-6.241 5.223-11.436 11.466-11.391 11.345.08 28.485 2.466 45.72 13.38 2.45 1.552 5.575 1.552 8.025 0 17.235-10.914 34.375-13.3 45.72-13.38 6.22-.044 11.467 5.184 11.467 11.391zm15 0s0-15.265 0-15.277c0-14.46-12.137-26.482-26.572-26.391-12.422.087-30.776 2.535-49.627 13.293-18.85-10.758-37.204-13.206-49.627-13.293-14.458-.101-26.572 11.951-26.572 26.391v15.277h-32.37c3.055-31.922 24.75-55.665 32.748-63.42 25.28 9.991 52.054 14.458 79.186 14.458 24.784-.388 49.314-5.175 72.423-14.128.093-.036.187-.069.28-.105 5.12 4.974 15.354 16.015 23.048 31.339.011.023.023.046.034.07 4.899 10.006 8.364 20.658 9.42 31.786zm137.532-209.871c-1.689 70.832-20.238 90.162-47.853 110.873-.067.051-.134.103-.2.155-11.989 9.641-15.043 20.537-17.738 30.15-3.593 12.815-7.003 24.979-31.569 38.49-7.216-17.813-18.065-31.409-25.558-39.408.269-.129.533-.265.801-.396 19.471-9.478 37.453-22.035 53.099-37.004 2.993-2.863 3.098-7.611.235-10.604-2.827-2.954-7.654-3.071-10.612-.242-21.016 20.099-46.295 35.314-73.947 44.341-18.318 5.979-37.587 9.245-57.26 9.556-26.59.418-52.342-5.026-76.954-14.872-.01-.004-.02-.007-.03-.011-28.695-12.024-54.549-31.073-74.767-55.089-20.266-24.075-34.502-52.76-41.224-83.003 17.609 23.941 37.597 39.694 59.705 47.032 34.871 11.574 71.265-.36 101.262-19.487 8.949-5.706 19.508-8.942 30.145-8.853 11.532.097 20.576 4.53 30.144 10.44 21.167 13.075 45.383 22.862 70.61 22.592h.08c9.875-.116 19.524-1.905 28.892-4.976 21.843-7.482 41.603-23.22 59.027-46.984-6.086 28.219-18.71 55.225-36.542 78.131-2.228 2.862-2.055 6.829.215 9.481 3.044 3.554 8.748 3.441 11.628-.259 18.305-23.518 31.171-50.192 38.102-78.621 3.462-.104 6.885-.661 10.257-1.421.018-.004.035-.007.052-.011zm21.952-47.32c0 13.137-7.543 24.539-18.521 30.122-3.327 1.69-6.918 2.808-10.612 3.321 1.339-8.118 2.209-16.306 2.606-24.524 6.096-11.704 11.148-23.387 15.255-34.114 7.097 6.317 11.272 15.396 11.272 25.195zm-261.334-108.573c48.753-.283 81.292-21.347 95.217-32.602 7.121 12.959 22.337 38.104 44.557 61.504-47.316 7.125-78.819 22.441-98.218 35.576-4.444 3.006-8.847 6.33-14.39 6.762-7.048.546-11.889-3.454-17.563-6.858-18.049-12.187-46.992-26.52-89.865-34.128 17.354-15.87 40.569-30.024 80.262-30.254zm-198.759 83.379c4.107 10.729 9.161 22.416 15.26 34.123.021.421.058.843.081 1.265.425 7.729 1.285 15.575 2.589 23.26-3.712-.507-7.327-1.628-10.668-3.325-10.985-5.581-18.534-16.987-18.534-30.128-.001-9.8 4.175-18.879 11.272-25.195z"/><path d="m143.963 281.527c11.801 4.609 23.521 6.812 34.168 6.812 20.184 0 36.504-7.919 42.147-22.369 4.374-11.198 1.563-24.118-7.915-36.38-8.622-11.155-21.995-20.667-37.655-26.783-15.66-6.117-31.94-8.187-45.84-5.828-15.279 2.592-26.103 10.187-30.476 21.385-4.374 11.198-1.563 24.118 7.915 36.379 8.623 11.156 21.996 20.668 37.656 26.784zm-31.598-57.705c3.213-8.226 13.292-11.083 19.013-12.054 2.949-.5 6.047-.748 9.252-.748 9.032 0 18.905 1.964 28.622 5.759 13.165 5.142 24.261 12.949 31.244 21.984 3.549 4.592 9.024 13.523 5.811 21.75-3.213 8.226-13.292 11.083-19.014 12.054-11.26 1.911-24.709.13-37.874-5.012s-24.261-12.949-31.245-21.984c-3.548-4.592-9.022-13.523-5.809-21.749z"/><path d="m340.364 288.339c10.646 0 22.37-2.203 34.168-6.812 15.66-6.116 29.033-15.628 37.655-26.783 9.478-12.262 12.289-25.182 7.915-36.379-4.374-11.198-15.197-18.793-30.476-21.385-13.901-2.359-30.18-.289-45.84 5.828s-29.033 15.628-37.655 26.783c-9.478 12.262-12.289 25.182-7.915 36.38 5.644 14.45 21.961 22.368 42.148 22.368zm-22.365-49.575c6.984-9.035 18.08-16.842 31.245-21.984 9.718-3.796 19.59-5.759 28.622-5.759 3.204 0 6.304.248 9.252.748 5.722.971 15.8 3.828 19.013 12.054s-2.262 17.157-5.811 21.749c-6.984 9.035-18.08 16.843-31.245 21.984-13.164 5.142-26.613 6.922-37.874 5.011-5.722-.971-15.8-3.828-19.014-12.054-3.212-8.226 2.263-17.158 5.812-21.749z"/></svg>