<svg height="512pt" viewBox="-89 0 512 512.001" width="512pt" xmlns="http://www.w3.org/2000/svg"><g fill="#93a3af"><path d="m323.476562 158.132812h-13.390624v-81.386718h13.390624c5.691407 0 10.304688 4.613281 10.304688 10.304687v60.78125c0 5.6875-4.613281 10.300781-10.304688 10.300781zm0 0"/><path d="m10.300781 251.878906h13.394531v-40.175781h-13.394531c-5.6875 0-10.300781 4.609375-10.300781 10.300781v19.574219c0 5.6875 4.613281 10.300781 10.300781 10.300781zm0 0"/><path d="m10.300781 178.734375h13.394531v-101.988281h-13.394531c-5.6875 0-10.300781 4.613281-10.300781 10.304687v81.382813c0 5.691406 4.613281 10.300781 10.300781 10.300781zm0 0"/><path d="m10.300781 315.75h13.394531v-40.175781h-13.394531c-5.6875 0-10.300781 4.609375-10.300781 10.300781v19.574219c0 5.6875 4.613281 10.300781 10.300781 10.300781zm0 0"/><path d="m21.035156 491.394531v-470.789062c0-11.378907 9.226563-20.605469 20.605469-20.605469h250.5c11.378906 0 20.605469 9.226562 20.605469 20.605469v470.792969c0 11.378906-9.226563 20.601562-20.605469 20.601562h-250.5c-11.378906 0-20.605469-9.226562-20.605469-20.605469zm0 0"/></g><path d="m312.742188 20.605469v470.792969c0 11.382812-9.21875 20.601562-20.601563 20.601562h-20.171875c11.382812 0 20.605469-9.21875 20.605469-20.601562v-470.792969c0-11.386719-9.222657-20.605469-20.605469-20.605469h20.171875c11.382813 0 20.601563 9.21875 20.601563 20.605469zm0 0" fill="#7b8c98"/><path d="m21.039062 52.023438h291.703126v407.953124h-291.703126zm0 0" fill="#a0d37d"/><path d="m269.96875 379.757812v80.21875h-184.390625v-80.21875c0-24.148437 19.574219-43.734374 43.722656-43.734374h96.960938c24.136719 0 43.707031 19.585937 43.707031 43.734374zm0 0" fill="#ebeef2"/><path d="m269.96875 379.75v80.226562h-14.890625v-80.226562c0-24.144531-19.582031-43.722656-43.726563-43.722656h14.90625c24.144532 0 43.710938 19.578125 43.710938 43.722656zm0 0" fill="#d3d8df"/><path d="m121.191406 420.019531h113.167969v39.957031h-113.167969zm0 0" fill="#7fb7ea"/><path d="m177.777344 360.644531c-8.230469 0-14.902344-6.671875-14.902344-14.902343v-41.800782h29.804688v41.800782c0 8.230468-6.671876 14.902343-14.902344 14.902343zm0 0" fill="#e39f6e"/><path d="m262.523438 208.777344c.007812.339844 0 .6875-.011719 1.027344-.09375 5.121093-.667969 10.324218-1.738281 15.558593l-.671876 3.285157-3.480468 16.996093h-157.679688l-4.164062-20.28125c-1.183594-5.792969-1.75-11.539062-1.75-17.183593 0-45.605469 37.035156-84.558594 84.753906-84.558594 32.59375 0 60.191406 18.164062 74.417969 44.207031 3.617187 6.621094 6.367187 13.75 8.117187 21.222656.207032.875.390625 1.75.566406 2.625 1.125 5.550781 1.679688 11.28125 1.640626 17.101563zm0 0" fill="#627687"/><path d="m112.6875 215.988281c-3.453125.40625-6.316406 3.105469-6.761719 6.707031-.539062 4.234376 2.472657 8.09375 6.703125 8.632813 2.484375.308594 5.507813.550781 8.933594.570313v-15.453126c-.101562 0-.195312-.007812-.300781-.007812-3.308594.035156-6.210938-.171875-8.574219-.449219zm0 0" fill="#455e6d"/><path d="m248.699219 216.765625c-4.914063 1.929687-9.953125 3.359375-15.105469 4.273437v15.625c9.144531-1.367187 18.019531-4.039062 26.507812-8.015624l.671876-3.285157c1.039062-5.085937 1.605468-10.140625 1.722656-15.121093-4.621094 2.671874-9.230469 4.820312-13.796875 6.523437zm0 0" fill="#455e6d"/><path d="m265.410156 253.585938c0 11.082031-8.984375 20.0625-20.0625 20.0625-11.082031 0-20.066406-8.980469-20.066406-20.0625 0-11.082032 8.984375-20.066407 20.066406-20.066407 11.078125 0 20.0625 8.984375 20.0625 20.066407zm0 0" fill="#e39f6e"/><path d="m130.269531 253.585938c0 11.082031-8.980469 20.0625-20.0625 20.0625s-20.066406-8.980469-20.066406-20.0625c0-11.082032 8.984375-20.066407 20.066406-20.066407s20.0625 8.984375 20.0625 20.066407zm0 0" fill="#e39f6e"/><path d="m177.777344 320.785156c-27.273438 0-50.28125-20.308594-53.660156-47.375l-9.980469-79.90625h127.28125l-9.980469 79.90625c-3.382812 27.066406-26.386719 47.375-53.660156 47.375zm0 0" fill="#f8c298"/><path d="m106.132812 214.820312s27.476563 7.761719 52.710938-10.660156c0 0 56.355469 39.953125 111.1875 1.25 2.78125-1.960937 2.710938-6.109375-.164062-7.9375l-34.0625-21.710937h-112.214844c-9.640625 0-17.457032 7.8125-17.457032 17.457031zm0 0" fill="#627687"/><path d="m260.882812 191.675781-25.773437-16.421875c-3.59375-2.296875-4.65625-7.066406-2.359375-10.671875 2.289062-3.597656 7.066406-4.65625 10.664062-2.359375l8.785157 5.601563c3.617187 6.625 6.367187 13.753906 8.117187 21.222656.207032.878906.394532 1.753906.566406 2.628906zm0 0" fill="#455e6d"/><path d="m148.402344 260.160156c-4.167969 0-7.605469-3.320312-7.71875-7.511718l-.085938-3.183594c-.117187-4.265625 3.246094-7.816406 7.511719-7.933594 4.292969-.101562 7.816406 3.246094 7.933594 7.511719l.089843 3.179687c.117188 4.265625-3.246093 7.820313-7.511718 7.9375-.074219 0-.148438 0-.21875 0zm0 0" fill="#627687"/><path d="m207.226562 260.160156c-4.167968 0-7.601562-3.320312-7.71875-7.511718l-.085937-3.183594c-.117187-4.265625 3.246094-7.816406 7.511719-7.933594 4.28125-.125 7.820312 3.246094 7.9375 7.511719l.085937 3.179687c.117188 4.265625-3.246093 7.820313-7.511719 7.9375-.074218 0-.144531 0-.21875 0zm0 0" fill="#627687"/><path d="m177.777344 288.347656c-9.523438 0-18.546875-4.609375-24.140625-12.335937-2.5-3.457031-1.726563-8.285157 1.730469-10.789063 3.457031-2.5 8.285156-1.726562 10.789062 1.726563 2.695312 3.722656 7.039062 5.949219 11.621094 5.949219 4.582031 0 8.925781-2.222657 11.621094-5.949219 2.503906-3.457031 7.332031-4.226563 10.789062-1.726563 3.457031 2.503906 4.230469 7.332032 1.726562 10.789063-5.59375 7.726562-14.617187 12.335937-24.136718 12.335937zm0 0" fill="#e39f6e"/><path d="m128.917969 399.164062v60.8125h-15.453125v-60.8125c0-4.265624 3.460937-7.726562 7.726562-7.726562s7.726563 3.460938 7.726563 7.726562zm0 0" fill="#d3d8df"/><path d="m242.082031 399.164062v60.8125h-15.453125v-60.8125c0-4.265624 3.460938-7.726562 7.726563-7.726562 4.277343 0 7.726562 3.460938 7.726562 7.726562zm0 0" fill="#d3d8df"/><path d="m292.574219 52.023438h20.171875v407.953124h-20.171875zm0 0" fill="#84b75b"/><path d="m187.0625 35.371094h-40.34375c-4.265625 0-7.726562-3.460938-7.726562-7.726563s3.460937-7.726562 7.726562-7.726562h40.34375c4.269531 0 7.726562 3.460937 7.726562 7.726562s-3.457031 7.726563-7.726562 7.726563zm0 0" fill="#7b8c98"/><path d="m144.015625 140.886719c0 5.429687-.96875 10.632812-2.738281 15.453125-6.292969 17.132812-22.757813 29.359375-42.074219 29.359375s-35.777344-12.226563-42.074219-29.359375c-1.769531-4.820313-2.738281-10.023438-2.738281-15.453125 0-24.753907 20.066406-44.8125 44.8125-44.8125s44.8125 20.058593 44.8125 44.8125zm0 0" fill="#ce3f63"/><path d="m141.277344 156.339844c-6.292969 17.132812-22.757813 29.359375-42.074219 29.359375s-35.777344-12.226563-42.074219-29.359375c6.296875-17.140625 22.757813-29.359375 42.074219-29.359375s35.777344 12.21875 42.074219 29.359375zm0 0" fill="#ed7a98"/><path d="m123.925781 108.179688c0 13.652343-11.066406 24.722656-24.722656 24.722656s-24.722656-11.070313-24.722656-24.722656c0-13.65625 11.066406-24.726563 24.722656-24.726563s24.722656 11.070313 24.722656 24.726563zm0 0" fill="#f8c298"/><path d="m267.226562 100.613281h-19.636718c-4.269532 0-7.726563-3.457031-7.726563-7.726562 0-4.265625 3.457031-7.726563 7.726563-7.726563h19.636718c4.269532 0 7.726563 3.460938 7.726563 7.726563 0 4.269531-3.457031 7.726562-7.726563 7.726562zm0 0" fill="#ebeef2"/></svg>