<svg height="512pt" viewBox="0 -34 512.00146 512" width="512pt" xmlns="http://www.w3.org/2000/svg"><path d="m223.460938 211.484375-20.394532 122.996094-30.558594 21.871093-9.433593 6.75-26.289063 18.808594c-7.402344 5.308594-17.523437-1-16.035156-9.976562l16.363281-98.664063zm0 0" fill="#3db4a0"/><path d="m223.460938 211.484375-20.394532 122.996094-30.558594 21.871093-9.433593 6.75-29.410157-69.03125 3.449219-20.800781zm0 0" fill="#05a592"/><path d="m203.820312 429.847656-66.707031-156.578125-126.214843-55.875c-6.003907-5.382812-3.695313-15.265625 4.054687-17.449219l476.527344-192.042968c4.601562-1.296875 8.757812.644531 11.078125 3.886718 2.320312 3.242188 2.816406 7.804688.101562 11.742188l-281.011718 408.109375c-4.570313 6.632813-14.671876 5.625-17.828126-1.792969zm0 0" fill="#74e2cd"/><path d="m502.664062 23.523438-281.015624 408.113281c-4.574219 6.636719-14.675782 5.625-17.824219-1.789063l-31.3125-73.496094-35.394531-83.082031 86.34375-61.78125 274.199218-196.203125 4.890625-3.5c2.324219 3.25 2.824219 7.8125.113281 11.738282zm0 0" fill="#4fceb7"/><path d="m502.667969 23.527344-281.027344 408.113281c-4.5625 6.636719-14.667969 5.621094-17.8125-1.789063l-4.042969-9.480468c3.871094.9375 8.25-.363282 10.847656-4.132813l265.449219-385.511719 26.464844-18.9375c2.332031 3.246094 2.828125 7.808594.121094 11.738282zm0 0" fill="#3db4a0"/><path d="m508.652344 7.429688c-4.398438-6.148438-11.9375-8.792969-19.210938-6.746094-.261718.074218-.523437.160156-.773437.261718l-350.191407 141.132813c-3.84375 1.550781-5.703124 5.917969-4.152343 9.761719 1.546875 3.84375 5.914062 5.699218 9.757812 4.152344l329.800781-132.914063-337.648437 241.601563-29.898437-13.238282 12.863281-8.082031c3.507812-2.207031 4.5625-6.835937 2.359375-10.34375-2.203125-3.503906-6.832032-4.5625-10.339844-2.359375l-21.425781 13.460938-22.570313-9.992188 10.398438-6.53125c3.507812-2.207031 4.5625-6.835938 2.359375-10.34375s-6.832031-4.5625-10.339844-2.359375l-18.957031 11.914063-35.320313-15.636719c-.464843-.761719-.398437-1.542969-.292969-2 .136719-.582031.566407-1.621094 1.914063-2 .261719-.074219.519531-.164063.773437-.265625l96.148438-38.75c3.84375-1.546875 5.703125-5.917969 4.152344-9.761719-1.546875-3.839844-5.914063-5.699219-9.757813-4.152344l-95.824219 38.621094c-6.003906 1.859375-10.585937 6.765625-12.015624 12.910156-1.464844 6.296875.613281 12.886719 5.421874 17.203125.589844.527344 1.253907.957032 1.976563 1.277344l120.90625 53.527344-15.410156 92.925781c-1.179688 7.097656 2.007812 14.140625 8.113281 17.941406 2.882812 1.796875 6.128906 2.6875 9.371094 2.6875 3.617187 0 7.222656-1.109375 10.308594-3.320312l28.125-20.121094 27.648437 64.894531c2.53125 5.945313 8.101563 10.042969 14.53125 10.6875.59375.058594 1.1875.089844 1.773437.089844 5.792969 0 11.269532-2.839844 14.59375-7.671875l88.945313-129.171875c2.351563-3.410156 1.488281-8.082031-1.921875-10.429688-3.414062-2.351562-8.082031-1.488281-10.433594 1.921876l-88.945312 129.171874c-.792969 1.152344-1.917969 1.222657-2.511719 1.164063-.597656-.058594-1.683594-.351563-2.230469-1.640625l-21.773437-51.097656 22.199219-15.882813c3.371093-2.410156 4.148437-7.097656 1.738281-10.464843-2.414063-3.371094-7.097657-4.148438-10.464844-1.734376l-19.496094 13.945313-14.519531-34.082031 21.285156-15.230469c3.367188-2.410156 4.144532-7.09375 1.734375-10.464844-2.410156-3.367187-7.097656-4.144531-10.464843-1.734375l-18.578126 13.292969-16.011718-37.585937 341.871094-244.625-105.453126 153.152343c-2.351562 3.414063-1.488281 8.082031 1.921876 10.429688 1.300781.898437 2.78125 1.324219 4.25 1.324219 2.382812 0 4.726562-1.132813 6.183593-3.246094l113.691407-165.113282c4.285156-6.222656 4.214843-14.214843-.183594-20.359374zm-376.230469 368.386718c-1.289063.921875-2.445313.457032-3.023437.097656-.574219-.359374-1.503907-1.195312-1.246094-2.757812l12.148437-73.261719 22.949219 53.863281zm0 0"/><path d="m374.382812 209.824219c-3.410156-2.351563-8.082031-1.488281-10.429687 1.925781l-40.703125 59.109375c-2.351562 3.410156-1.488281 8.082031 1.921875 10.429687 1.300781.894532 2.78125 1.324219 4.25 1.324219 2.382813 0 4.726563-1.136719 6.183594-3.246093l40.703125-59.109376c2.347656-3.414062 1.484375-8.082031-1.925782-10.433593zm0 0"/></svg>