<svg height="512pt" viewBox="-86 0 512 512" width="512pt" xmlns="http://www.w3.org/2000/svg"><g fill="#93a3af"><path d="m321.5 161h-13v-79h13c5.523438 0 10 4.476562 10 10v59c0 5.523438-4.476562 10-10 10zm0 0"/><path d="m17.5 252h13v-39h-13c-5.523438 0-10 4.476562-10 10v19c0 5.523438 4.476562 10 10 10zm0 0"/><path d="m17.5 181h13v-99h-13c-5.523438 0-10 4.476562-10 10v79c0 5.523438 4.476562 10 10 10zm0 0"/><path d="m17.5 314h13v-39h-13c-5.523438 0-10 4.476562-10 10v19c0 5.523438 4.476562 10 10 10zm0 0"/><path d="m27.917969 484.5v-457c0-11.046875 8.953125-20 20-20h243.164062c11.046875 0 20 8.953125 20 20v457c0 11.046875-8.953125 20-20 20h-243.164062c-11.046875 0-20-8.953125-20-20zm0 0"/></g><path d="m311.078125 27.5v457c0 11.050781-8.949219 20-20 20h-19.578125c11.050781 0 20-8.949219 20-20v-457c0-11.050781-8.949219-20-20-20h19.578125c11.050781 0 20 8.949219 20 20zm0 0" fill="#7b8c98"/><path d="m27.921875 58h283.15625v396h-283.15625zm0 0" fill="#a0d37d"/><path d="m269.558594 376.125v77.875h-178.992188v-77.875c0-23.4375 19.003906-42.441406 42.441406-42.441406h94.121094c23.433594 0 42.429688 19.003906 42.429688 42.441406zm0 0" fill="#ebeef2"/><path d="m269.558594 376.125v77.875h-14.457032v-77.875c0-23.4375-19.003906-42.441406-42.441406-42.441406h14.46875c23.433594 0 42.429688 19.003906 42.429688 42.441406zm0 0" fill="#d3d8df"/><path d="m125.140625 415.214844h109.851563v38.785156h-109.851563zm0 0" fill="#7fb7ea"/><path d="m180.066406 357.578125c-7.988281 0-14.464844-6.472656-14.464844-14.464844v-40.578125h28.929688v40.578125c0 7.992188-6.476562 14.464844-14.464844 14.464844zm0 0" fill="#e39f6e"/><path d="m103.539062 245.949219h153.058594l4.035156-19.691407c10.457032-51-28.503906-98.757812-80.566406-98.757812-52.058594 0-91.019531 47.757812-80.5625 98.757812zm0 0" fill="#627687"/><path d="m265.132812 253.65625c0 10.757812-8.71875 19.476562-19.476562 19.476562-10.753906 0-19.476562-8.71875-19.476562-19.476562s8.722656-19.476562 19.476562-19.476562c10.757812 0 19.476562 8.71875 19.476562 19.476562zm0 0" fill="#e39f6e"/><path d="m133.953125 253.65625c0 10.757812-8.71875 19.476562-19.476563 19.476562-10.757812 0-19.476562-8.71875-19.476562-19.476562s8.71875-19.476562 19.476562-19.476562c10.757813 0 19.476563 8.71875 19.476563 19.476562zm0 0" fill="#e39f6e"/><path d="m180.066406 318.886719c-26.472656 0-48.804687-19.714844-52.085937-45.984375l-9.691407-77.566406h123.554688l-9.691406 77.566406c-3.28125 26.269531-25.609375 45.984375-52.085938 45.984375zm0 0" fill="#f8c298"/><path d="m110.519531 216.027344s26.671875 7.53125 51.171875-10.347656c0 0 54.699219 38.785156 107.925782 1.214843 2.699218-1.90625 2.628906-5.933593-.15625-7.710937l-33.0625-21.074219h-108.933594c-9.355469 0-16.945313 7.585937-16.945313 16.945313zm0 0" fill="#627687"/><path d="m291.5 58h19.582031v396h-19.582031zm0 0" fill="#84b75b"/><path d="m147.296875 144.261719c0 5.269531-.941406 10.316406-2.660156 15-6.109375 16.628906-22.089844 28.5-40.839844 28.5s-34.730469-11.871094-40.839844-28.5c-1.722656-4.683594-2.660156-9.730469-2.660156-15 0-24.03125 19.480469-43.5 43.5-43.5s43.5 19.46875 43.5 43.5zm0 0" fill="#ce3f63"/><path d="m144.636719 159.261719c-6.109375 16.628906-22.089844 28.5-40.839844 28.5s-34.730469-11.871094-40.839844-28.5c6.109375-16.640625 22.089844-28.5 40.839844-28.5s34.730469 11.859375 40.839844 28.5zm0 0" fill="#ed7a98"/><path d="m127.796875 112.511719c0 13.253906-10.746094 24-24 24s-24-10.746094-24-24c0-13.257813 10.746094-24 24-24s24 10.742187 24 24zm0 0" fill="#f8c298"/><path d="m321.5 74.5h-2.917969v-47c0-15.164062-12.335937-27.5-27.5-27.5h-50.136719c-4.140624 0-7.5 3.359375-7.5 7.5s3.359376 7.5 7.5 7.5h50.136719c6.894531 0 12.5 5.605469 12.5 12.5v23h-268.164062v-23c0-6.894531 5.605469-12.5 12.5-12.5h160.367187c4.140625 0 7.5-3.359375 7.5-7.5s-3.359375-7.5-7.5-7.5h-160.367187c-15.164063 0-27.5 12.335938-27.5 27.5v47h-2.917969c-9.648438 0-17.5 7.851562-17.5 17.5v79c0 9.648438 7.851562 17.5 17.5 17.5h2.917969v17h-2.917969c-9.648438 0-17.5 7.851562-17.5 17.5v19c0 9.648438 7.851562 17.5 17.5 17.5h2.917969v8h-2.917969c-9.648438 0-17.5 7.851562-17.5 17.5v19c0 9.648438 7.851562 17.5 17.5 17.5h2.917969v163c0 15.164062 12.335937 27.5 27.5 27.5h37.371093c4.144532 0 7.5-3.359375 7.5-7.5s-3.355468-7.5-7.5-7.5h-37.371093c-6.894531 0-12.5-5.605469-12.5-12.5v-23h268.164062v23c0 6.894531-5.609375 12.5-12.5 12.5h-173.132812c-4.140625 0-7.5 3.359375-7.5 7.5s3.359375 7.5 7.5 7.5h173.132812c15.164063 0 27.5-12.335938 27.5-27.5v-170.042969c0-4.140625-3.359375-7.5-7.5-7.5s-7.5 3.359375-7.5 7.5v132.042969h-26.515625v-70.375c0-27.539062-22.402344-49.941406-49.941406-49.941406h-25.09375v-3.980469c18.117188-7.160156 32.085938-22.914063 36.535156-42.523437 2.285156.621093 4.660156.953124 7.089844.953124 14.875 0 26.976562-12.101562 26.976562-26.976562 0-6.632812-2.40625-12.707031-6.390624-17.410156l1.738281-8.480469c.800781-3.917969 1.335937-7.894531 1.617187-11.855469 1.460938-.925781 2.914063-1.878906 4.34375-2.886718 3.324219-2.347657 5.25-6.167969 5.152344-10.230469-.09375-4.042969-2.1875-7.757813-5.601562-9.933594l-6.082032-3.875c-4.546875-19.082031-15.441406-36.429687-30.734375-48.898437-16.121093-13.140626-35.695312-20.085938-56.609375-20.085938-10.046875 0-19.8125 1.617188-29.132812 4.8125-3.535156-8.574219-9.386719-16.117188-17.082032-21.738281-4.019531-12.773438-15.972656-22.0625-30.054687-22.0625-14.085937 0-26.039063 9.292969-30.058594 22.066406-13.125 9.597656-20.941406 24.894531-20.941406 41.179687 0 6.082032 1.074219 11.914063 3.03125 17.324219.066406.199219.140625.394531.222656.589844 5.882813 15.625 19.222657 27.617187 35.660157 31.628906-2.03125 11.191407-1.890626 22.589844.441406 33.964844l1.738281 8.480469c-3.984375 4.703125-6.394531 10.777344-6.394531 17.410156 0 14.875 12.105468 26.976562 26.980468 26.976562 2.429688 0 4.804688-.335937 7.089844-.953124 4.449219 19.609374 18.417969 35.363281 36.53125 42.523437v3.980469h-25.089844c-27.539062 0-49.941406 22.40625-49.941406 49.941406v70.375h-47.648437v-381h268.160156v216.296875c0 4.144531 3.359375 7.5 7.5 7.5 4.144531 0 7.5-3.355469 7.5-7.5v-113.296875h2.921875c9.648438 0 17.5-7.851562 17.5-17.5v-59c0-9.648438-7.851562-17.5-17.5-17.5zm-188.859375 348.207031h94.851563v23.792969h-94.851563zm113.015625-157.074219c-1.71875 0-3.375-.363281-4.902344-1.050781l2.835938-22.71875c.679687-.117187 1.371094-.183593 2.066406-.183593 6.605469 0 11.976562 5.375 11.976562 11.976562 0 6.605469-5.371093 11.976562-11.976562 11.976562zm7.628906-40.878906-.585937 2.863282c-2.0625-.558594-4.226563-.875-6.453125-.921876 2.40625-.734374 4.789062-1.570312 7.144531-2.503906-.039063.1875-.066406.375-.105469.5625zm-73.21875-89.753906c28.785156 0 54.152344 16.113281 66.65625 40.796875l-6.292968-4.011719c-3.496094-2.226562-8.128907-1.195312-10.355469 2.292969-2.226563 3.496094-1.199219 8.132813 2.292969 10.359375l29.367187 18.71875c-19.179687 12.238281-40.605469 15.625-63.753906 10.058594-18.832031-4.53125-31.835938-13.570313-31.953125-13.652344-2.628906-1.867188-6.15625-1.839844-8.757813.058594-15.308593 11.171875-31.605469 11.085937-39.953125 10.042968-4.117187-.511718-7.859375 2.398438-8.375 6.507813-.46875 3.734375 1.894532 7.15625 5.410156 8.144531l.296876 2.371094c-.058594 0-.113282-.007812-.171876-.007812-2.4375 0-4.796874.332031-7.042968.9375l-.585938-2.863282c-2.035156-9.925781-2.074218-19.855468-.132812-29.585937 20.570312-1.164063 37.914062-14.578125 44.84375-33.046875.074218-.171875.140625-.347656.199218-.523438 1.964844-5.417968 3.039063-11.253906 3.039063-17.339844 0-1.613281-.101563-3.210937-.25-4.796874 8.128906-2.953126 16.691406-4.460938 25.519531-4.460938zm-46.789062-11.410156c2.910156 4.148437 4.921875 8.882812 5.878906 13.90625-2.835938-2.730469-5.996094-5.128906-9.417969-7.144532 1.4375-2.085937 2.632813-4.355468 3.539063-6.761718zm-29.480469-27.578125c9.097656 0 16.5 7.398437 16.5 16.5 0 9.097656-7.402344 16.5-16.5 16.5s-16.5-7.402344-16.5-16.5c0-9.101563 7.402344-16.5 16.5-16.5zm-25.941406 34.339843c-3.417969 2.015626-6.574219 4.40625-9.410157 7.132813.960938-5.003906 2.976563-9.726563 5.875-13.875.910157 2.402344 2.101563 4.660156 3.535157 6.742187zm-6.777344 28.898438c3.8125-8.324219 10.613281-14.863281 19.125-18.328125 4.117187 1.976563 8.726563 3.089844 13.59375 3.089844 4.863281 0 9.476563-1.113281 13.59375-3.089844 8.507813 3.464844 15.3125 10.003906 19.121094 18.328125-5.695313 12.382812-18.214844 21.007812-32.714844 21.007812s-27.019531-8.625-32.71875-21.007812zm31.421875 94.40625c0-6.605469 5.371094-11.976562 11.976562-11.976562.699219 0 1.390626.0625 2.066407.179687l2.839843 22.722656c-1.527343.6875-3.1875 1.050781-4.90625 1.050781-6.605468 0-11.976562-5.371093-11.976562-11.976562zm32.921875 18.316406-5.875-47.039062c9.398437-.632813 20.890625-3.210938 32.277344-10.300782 5.929687 3.496094 17.359375 9.40625 32.078125 13.023438 8.445312 2.078125 16.792968 3.109375 24.972656 3.109375 3.726562 0 7.414062-.214844 11.066406-.644531l-5.226562 41.851562c-2.808594 22.472656-22 39.417969-44.648438 39.417969-22.644531 0-41.835937-16.949219-44.644531-39.417969zm44.644531 54.414063c2.355469 0 4.675782-.152344 6.964844-.417969v17.144531c0 3.84375-3.125 6.96875-6.964844 6.96875s-6.964844-3.125-6.964844-6.96875v-17.144531c2.289063.265625 4.613282.417969 6.964844.417969zm-81.996094 49.738281c0-19.265625 15.671876-34.941406 34.9375-34.941406h25.09375v1.929687c0 12.113281 9.851563 21.96875 21.964844 21.96875 12.113282 0 21.964844-9.855469 21.964844-21.96875v-1.929687h25.09375c19.265625 0 34.9375 15.675781 34.9375 34.941406v70.375h-19.570312v-57.527344c0-4.144531-3.355469-7.5-7.5-7.5-4.140626 0-7.5 3.355469-7.5 7.5v18.734375h-94.851563v-18.734375c0-4.144531-3.359375-7.5-7.5-7.5-4.144531 0-7.5 3.355469-7.5 7.5v57.527344h-19.570313zm-80.570312-202.625c-1.378906 0-2.5-1.121094-2.5-2.5v-79c0-1.378906 1.121094-2.5 2.5-2.5h2.917969v84zm0 71c-1.378906 0-2.5-1.121094-2.5-2.5v-19c0-1.378906 1.121094-2.5 2.5-2.5h2.917969v24zm0 62c-1.378906 0-2.5-1.121094-2.5-2.5v-19c0-1.378906 1.121094-2.5 2.5-2.5h2.917969v24zm306.5-155.5c0 1.378906-1.121094 2.5-2.5 2.5h-2.917969v-64h2.917969c1.378906 0 2.5 1.121094 2.5 2.5zm0 0"/><path d="m159.054688 252.335938-.082032-3.089844c-.113281-4.140625-3.539062-7.386719-7.703125-7.289063-4.140625.113281-7.40625 3.5625-7.292969 7.699219l.085938 3.089844c.109375 4.070312 3.445312 7.292968 7.492188 7.292968.066406 0 .136718 0 .207031-.003906 4.140625-.109375 7.40625-3.558594 7.292969-7.699218zm0 0"/><path d="m208.65625 260.039062h.207031c4.144531-.113281 7.40625-3.5625 7.292969-7.703124l-.082031-3.085938c-.113281-4.140625-3.550781-7.414062-7.703125-7.292969-4.140625.113281-7.40625 3.5625-7.292969 7.703125l.085937 3.085938c.109376 4.070312 3.445313 7.292968 7.492188 7.292968zm0 0"/><path d="m203.496094 275.425781c2.429687-3.355469 1.679687-8.042969-1.675782-10.472656-3.351562-2.429687-8.042968-1.679687-10.472656 1.675781-2.617187 3.613282-6.832031 5.769532-11.28125 5.769532-4.445312 0-8.664062-2.15625-11.28125-5.769532-2.429687-3.355468-7.117187-4.105468-10.472656-1.675781s-4.105469 7.117187-1.675781 10.472656c5.429687 7.5 14.1875 11.976563 23.429687 11.976563 9.242188 0 18-4.476563 23.429688-11.976563zm0 0"/><path d="m149.917969 26.832031c-4.140625 0-7.5 3.359375-7.5 7.5 0 4.144531 3.359375 7.5 7.5 7.5h39.164062c4.140625 0 7.5-3.355469 7.5-7.5 0-4.140625-3.359375-7.5-7.5-7.5zm0 0"/><path d="m247.832031 90.167969c-4.140625 0-7.5 3.355469-7.5 7.5 0 4.140625 3.359375 7.5 7.5 7.5h19.066407c4.140624 0 7.5-3.359375 7.5-7.5 0-4.144531-3.359376-7.5-7.5-7.5zm0 0"/></svg>