<svg height="512pt" viewBox="-15 0 511 512" width="512pt" xmlns="http://www.w3.org/2000/svg"><path d="m362.257812 48.597656v186.632813c0 4.992187-4.046874 9.039062-9.039062 9.039062h-302.835938c-4.984374 0-9.027343-4.046875-9.027343-9.039062v-151.804688c0-4.992187 4.042969-9.039062 9.027343-9.039062h255.207032l42.058594-32.910157c5.9375-4.640624 14.609374-.417968 14.609374 7.121094zm0 0" fill="#ebeef2"/><path d="m362.257812 211.625v23.605469c0 4.992187-4.046874 9.039062-9.039062 9.039062h-234.984375v-46.578125c0-11.53125 9.394531-20.917968 20.945313-20.917968 4.667968 0 9.117187 1.542968 12.835937 4.460937l38.847656 30.390625zm0 0" fill="#d3d8df"/><path d="m451.003906 232.519531v151.804688c0 4.992187-4.042968 9.039062-9.027344 9.039062h-302.835937c-4.992187 0-9.039063-4.046875-9.039063-9.039062v-186.636719c0-7.523438 8.671876-11.757812 14.609376-7.109375l42.058593 32.910156h255.207031c4.984376.003907 9.027344 4.046875 9.027344 9.03125zm0 0" fill="#a0d37d"/><path d="m374.125 308.828125v84.535156h-234.984375c-4.992187 0-9.039063-4.046875-9.039063-9.039062v-61.5625h171.394532l38.835937-30.390625c3.726563-2.917969 8.167969-4.460938 12.847657-4.460938 11.550781 0 20.945312 9.386719 20.945312 20.917969zm0 0" fill="#84b75b"/><path d="m305.589844 334.625h-255.203125c-4.992188 0-9.039063 4.046875-9.039063 9.035156v151.804688c0 4.988281 4.046875 9.035156 9.039063 9.035156h302.832031c4.988281 0 9.035156-4.046875 9.035156-9.035156v-186.636719c0-7.53125-8.671875-11.757813-14.605468-7.113281zm0 0" fill="#ebeef2"/><path d="m474.222656 220.347656c0 5.515625-.984375 10.796875-2.785156 15.695313-6.390625 17.398437-23.109375 29.816406-42.726562 29.816406-19.617188 0-36.335938-12.417969-42.726563-29.816406-1.800781-4.894531-2.785156-10.179688-2.785156-15.695313 0-25.140625 20.382812-45.507812 45.511719-45.507812 25.132812-.003906 45.511718 20.367187 45.511718 45.507812zm0 0" fill="#eb5777"/><path d="m471.441406 236.042969c-6.394531 17.398437-23.113281 29.816406-42.730468 29.816406-19.617188 0-36.335938-12.417969-42.726563-29.816406 6.394531-17.410157 23.109375-29.820313 42.726563-29.820313 19.617187 0 36.335937 12.410156 42.730468 29.820313zm0 0" fill="#faaa3c"/><path d="m453.820312 187.128906c0 13.867188-11.242187 25.109375-25.109374 25.109375-13.867188 0-25.109376-11.242187-25.109376-25.109375 0-13.867187 11.242188-25.109375 25.109376-25.109375 13.867187 0 25.109374 11.242188 25.109374 25.109375zm0 0" fill="#f8c298"/><path d="m99.023438 326.195312c0 5.515626-.984376 10.796876-2.785157 15.695313-6.390625 17.398437-23.109375 29.816406-42.726562 29.816406-19.617188 0-36.335938-12.417969-42.730469-29.816406-1.796875-4.898437-2.78125-10.179687-2.78125-15.695313 0-25.140624 20.382812-45.511718 45.511719-45.511718 25.128906 0 45.511719 20.371094 45.511719 45.511718zm0 0" fill="#74e2cd"/><path d="m96.238281 341.890625c-6.390625 17.398437-23.109375 29.816406-42.726562 29.816406-19.617188 0-36.335938-12.417969-42.730469-29.816406 6.394531-17.410156 23.113281-29.820313 42.730469-29.820313 19.617187 0 36.335937 12.410157 42.726562 29.820313zm0 0" fill="#eb5777"/><path d="m78.621094 292.976562c0 13.867188-11.242188 25.109376-25.109375 25.109376-13.867188 0-25.109375-11.242188-25.109375-25.109376 0-13.867187 11.242187-25.109374 25.109375-25.109374 13.867187 0 25.109375 11.242187 25.109375 25.109374zm0 0" fill="#f8c298"/><path d="m99.023438 65.828125c0 5.515625-.984376 10.796875-2.785157 15.695313-6.390625 17.398437-23.109375 29.816406-42.726562 29.816406-19.617188 0-36.335938-12.417969-42.730469-29.820313-1.796875-4.894531-2.78125-10.179687-2.78125-15.691406 0-25.140625 20.382812-45.511719 45.511719-45.511719 25.128906 0 45.511719 20.371094 45.511719 45.511719zm0 0" fill="#74e2cd"/><path d="m96.238281 81.519531c-6.390625 17.402344-23.109375 29.820313-42.726562 29.820313-19.617188 0-36.335938-12.417969-42.730469-29.820313 6.394531-17.40625 23.113281-29.816406 42.730469-29.816406 19.617187 0 36.335937 12.410156 42.726562 29.816406zm0 0" fill="#eb5777"/><path d="m78.621094 32.609375c0 13.867187-11.242188 25.109375-25.109375 25.109375-13.867188 0-25.109375-11.242188-25.109375-25.109375s11.242187-25.109375 25.109375-25.109375c13.867187 0 25.109375 11.242188 25.109375 25.109375zm0 0" fill="#f8c298"/><path d="m223.738281 110.78125h-82.644531c-4.140625 0-7.5 3.359375-7.5 7.5 0 4.144531 3.359375 7.5 7.5 7.5h82.644531c4.144531 0 7.5-3.355469 7.5-7.5 0-4.140625-3.355469-7.5-7.5-7.5zm0 0"/><path d="m106.683594 125.78125h10.914062c4.144532 0 7.5-3.355469 7.5-7.5 0-4.140625-3.355468-7.5-7.5-7.5h-10.914062c-4.140625 0-7.5 3.359375-7.5 7.5 0 4.144531 3.359375 7.5 7.5 7.5zm0 0"/><path d="m317.933594 154.429688c0-4.144532-3.355469-7.5-7.5-7.5h-67.429688c-4.144531 0-7.5 3.355468-7.5 7.5 0 4.140624 3.355469 7.5 7.5 7.5h67.429688c4.144531 0 7.5-3.359376 7.5-7.5zm0 0"/><path d="m106.683594 161.929688h115.253906c4.140625 0 7.5-3.359376 7.5-7.5 0-4.144532-3.359375-7.5-7.5-7.5h-115.253906c-4.140625 0-7.5 3.355468-7.5 7.5 0 4.140624 3.359375 7.5 7.5 7.5zm0 0"/><path d="m223.738281 386.019531c4.144531 0 7.5-3.359375 7.5-7.5 0-4.144531-3.355469-7.5-7.5-7.5h-82.644531c-4.140625 0-7.5 3.355469-7.5 7.5 0 4.140625 3.359375 7.5 7.5 7.5zm0 0"/><path d="m106.683594 386.019531h10.914062c4.144532 0 7.5-3.359375 7.5-7.5 0-4.144531-3.355468-7.5-7.5-7.5h-10.914062c-4.140625 0-7.5 3.355469-7.5 7.5 0 4.140625 3.359375 7.5 7.5 7.5zm0 0"/><path d="m310.433594 407.160156h-33.21875c-4.144532 0-7.5 3.359375-7.5 7.5 0 4.144532 3.355468 7.5 7.5 7.5h33.21875c4.144531 0 7.5-3.355468 7.5-7.5 0-4.140625-3.355469-7.5-7.5-7.5zm0 0"/><path d="m106.683594 422.160156h149.464844c4.140624 0 7.5-3.355468 7.5-7.5 0-4.140625-3.359376-7.5-7.5-7.5h-149.464844c-4.140625 0-7.5 3.359375-7.5 7.5 0 4.144532 3.359375 7.5 7.5 7.5zm0 0"/><path d="m317.933594 437.703125c0-4.140625-3.355469-7.5-7.5-7.5h-88.496094c-4.140625 0-7.5 3.359375-7.5 7.5 0 4.144531 3.359375 7.5 7.5 7.5h88.496094c4.144531 0 7.5-3.355469 7.5-7.5zm0 0"/><path d="m106.683594 445.203125h95c4.140625 0 7.5-3.355469 7.5-7.5 0-4.140625-3.359375-7.5-7.5-7.5h-95c-4.140625 0-7.5 3.359375-7.5 7.5 0 4.144531 3.359375 7.5 7.5 7.5zm0 0"/><path d="m106.683594 468.246094h145.414062c4.144532 0 7.5-3.355469 7.5-7.5 0-4.144532-3.355468-7.5-7.5-7.5h-145.414062c-4.140625 0-7.5 3.355468-7.5 7.5 0 4.144531 3.359375 7.5 7.5 7.5zm0 0"/><path d="m478.355469 238.921875c.074219-.179687.144531-.359375.207031-.546875 2.042969-5.628906 3.160156-11.699219 3.160156-18.027344 0-17.050781-8.136718-32.898437-21.859375-42.871094-4.128906-13.285156-16.53125-22.957031-31.152343-22.957031-14.621094 0-27.023438 9.671875-31.148438 22.957031-12.523438 9.109376-20.394531 23.199219-21.660156 38.511719h-6.148438v-92.660156c0-4.140625-3.355468-7.5-7.5-7.5-4.140625 0-7.5 3.359375-7.5 7.5v92.660156h-97.3125c-4.144531 0-7.5 3.355469-7.5 7.5s3.355469 7.5 7.5 7.5h119.332032c.519531 2.53125 1.222656 5 2.089843 7.390625.058594.183594.128907.363282.203125.542969 7.546875 20.09375 26.949219 34.433594 49.644532 34.433594 5.136718 0 10.097656-.746094 14.796874-2.117188v113.089844c0 .847656-.6875 1.535156-1.535156 1.535156h-72.21875v-77.035156c0-6.375-3.558594-12.070313-9.292968-14.863281-5.730469-2.792969-12.410157-2.085938-17.433594 1.84375l-40.023438 31.316406h-165.402344v-129.433594c0-.636718.292969-1.101562.863282-1.378906.574218-.28125 1.117187-.222656 1.621094.167969l42.058593 32.914062c1.320313 1.03125 2.949219 1.59375 4.621094 1.59375h38.015625c4.140625 0 7.5-3.355469 7.5-7.5s-3.359375-7.5-7.5-7.5h-35.429688l-40.023437-31.316406c-5.019531-3.929687-11.699219-4.636719-17.433594-1.84375-5.730469 2.792969-9.292969 8.488281-9.292969 14.863281v39.074219h-72.214843c-.847657 0-1.539063-.691406-1.539063-1.539063v-116.605468c1.539063.132812 3.089844.214844 4.664063.214844 22.6875 0 42.085937-14.328126 49.632812-34.410157.082031-.191406.15625-.382812.21875-.578125.234375-.644531.453125-1.300781.664063-1.957031h201.5625c1.675781 0 3.304687-.5625 4.621094-1.59375l42.0625-32.914063c.5-.390624 1.046874-.449218 1.617187-.167968.574219.277344.863281.742187.863281 1.378906v42.078125c0 4.140625 3.359375 7.5 7.5 7.5 4.144532 0 7.5-3.359375 7.5-7.5v-42.078125c0-6.375-3.558594-12.070312-9.292968-14.863281-5.730469-2.792969-12.410157-2.089844-17.433594 1.839843l-40.023438 31.320313h-196.507812c.007812-.355469.027344-.707031.027344-1.066406 0-17.011719-8.148438-32.886719-21.859376-42.863281-4.125-13.285157-16.53125-22.960938-31.152343-22.960938-14.617188 0-27.019531 9.667969-31.148438 22.945312-13.730469 9.976563-21.863281 25.808594-21.863281 42.878907 0 6.320312 1.117188 12.386719 3.15625 18.011719.070312.214843.148438.425781.238281.632812 5.242188 13.914062 16.179688 25.050781 29.953125 30.570312v120.191407c0 9.117187 7.417969 16.535156 16.539063 16.535156h72.214843v75.359375h-16.101562c.003906-.3125.023438-.621094.023438-.933594 0-17.046875-8.140626-32.894531-21.863282-42.871094-4.125-13.28125-16.527344-22.953124-31.148437-22.953124-14.621094 0-27.027344 9.671874-31.152344 22.957031-13.710937 9.976562-21.859375 25.851562-21.859375 42.867187 0 6.324219 1.117188 12.390625 3.15625 18.019532.066406.199218.144531.398437.226562.59375 5.238282 13.925781 16.179688 25.074218 29.96875 30.601562v120.058594c0 9.117187 7.417969 16.535156 16.535157 16.535156h302.832031c9.117188 0 16.535156-7.417969 16.535156-16.535156v-39.136719c0-4.140625-3.355468-7.5-7.5-7.5-4.140625 0-7.5 3.359375-7.5 7.5v39.136719c0 .847656-.6875 1.535156-1.535156 1.535156h-302.832031c-.847657 0-1.539063-.6875-1.539063-1.535156v-116.476563c1.539063.132813 3.089844.214844 4.664063.214844 22.699219 0 42.105469-14.34375 49.648437-34.445313.070313-.175781.140625-.351562.199219-.535156.253906-.691406.492187-1.394531.714844-2.097656h201.515625c1.675781 0 3.304687-.5625 4.621094-1.59375l42.0625-32.914062c.503906-.390626 1.046874-.449219 1.617187-.167969.574219.277343.863281.742187.863281 1.378906v114.84375c0 4.140625 3.359375 7.5 7.5 7.5 4.144532 0 7.5-3.359375 7.5-7.5v-22.808594h72.21875c9.117188 0 16.535156-7.417969 16.535156-16.535156v-120.164063c8.972657-6.121093 15.972657-14.921874 19.847657-25.242187zm-387.324219-179.082031c-3.25-3.261719-6.910156-6.105469-10.894531-8.4375 1.710937-2.417969 3.101562-5.078125 4.109375-7.917969 3.503906 4.816406 5.839844 10.410156 6.785156 16.355469zm-37.519531-44.839844c9.710937 0 17.609375 7.898438 17.609375 17.609375s-7.898438 17.609375-17.609375 17.609375c-9.710938 0-17.609375-7.898438-17.609375-17.609375s7.898437-17.609375 17.609375-17.609375zm-30.746094 28.46875c1.011719 2.847656 2.40625 5.515625 4.125 7.9375-3.988281 2.335938-7.652344 5.179688-10.90625 8.441406.945313-5.960937 3.277344-11.5625 6.78125-16.378906zm-3.863281 38.046875c4.023437-8.824219 11.402344-15.921875 20.394531-19.5625 4.296875 2.089844 9.121094 3.265625 14.214844 3.265625 5.089843 0 9.910156-1.171875 14.207031-3.261719 8.996094 3.640625 16.375 10.71875 20.402344 19.558594-5.988282 13.148437-19.242188 22.320313-34.609375 22.320313-15.367188 0-28.625-9.171876-34.609375-22.320313zm72.132812 238.691406c-3.25-3.261719-6.914062-6.105469-10.898437-8.4375 1.714843-2.421875 3.105469-5.082031 4.117187-7.925781 3.503906 4.816406 5.835938 10.410156 6.78125 16.363281zm-37.523437-44.839843c9.710937 0 17.609375 7.898437 17.609375 17.609374 0 9.710938-7.898438 17.609376-17.609375 17.609376-9.710938 0-17.609375-7.898438-17.609375-17.609376 0-9.710937 7.898437-17.609374 17.609375-17.609374zm-30.738281 28.484374c1.007812 2.84375 2.402343 5.503907 4.113281 7.921876-3.984375 2.332031-7.648438 5.171874-10.898438 8.4375.949219-5.945313 3.28125-11.539063 6.785157-16.359376zm30.738281 60.351563c-15.367188 0-28.625-9.171875-34.609375-22.320313 4.023437-8.832031 11.40625-15.917968 20.398437-19.5625 4.296875 2.089844 9.117188 3.265626 14.210938 3.265626 5.089843 0 9.910156-1.171876 14.207031-3.261719 8.996094 3.644531 16.375 10.71875 20.402344 19.558593-5.988282 13.148438-19.242188 22.320313-34.609375 22.320313zm412.703125-149.964844c-3.226563-3.226562-6.875-6.027343-10.863282-8.335937 1.707032-2.414063 3.09375-5.070313 4.101563-7.90625 3.480469 4.785156 5.804687 10.335937 6.761719 16.242187zm-37.503906-44.71875c9.710937 0 17.609374 7.902344 17.609374 17.613281 0 9.707032-7.898437 17.605469-17.609374 17.605469-9.710938 0-17.609376-7.898437-17.609376-17.605469 0-9.710937 7.898438-17.613281 17.609376-17.613281zm-37.5 44.714844c.960937-5.882813 3.292968-11.433594 6.765624-16.21875 1.003907 2.828125 2.390626 5.476563 4.09375 7.886719-3.984374 2.308594-7.632812 5.105468-10.859374 8.332031zm2.890624 21.800781c4.019532-8.816406 11.410157-15.921875 20.394532-19.5625 4.300781 2.089844 9.121094 3.265625 14.214844 3.265625s9.917968-1.175781 14.214843-3.265625c8.984375 3.636719 16.375 10.746094 20.394531 19.5625-5.984374 13.152344-19.242187 22.320313-34.609374 22.320313-15.367188 0-28.621094-9.167969-34.609376-22.320313zm0 0"/><path d="m339.265625 265.671875c0-4.144531-3.359375-7.5-7.5-7.5h-149.347656c-4.144531 0-7.5 3.355469-7.5 7.5 0 4.140625 3.355469 7.5 7.5 7.5h149.347656c4.140625 0 7.5-3.359375 7.5-7.5zm0 0"/><path d="m182.417969 292.277344c-4.144531 0-7.5 3.355468-7.5 7.5 0 4.140625 3.355469 7.5 7.5 7.5h83.769531c4.140625 0 7.5-3.359375 7.5-7.5 0-4.144532-3.359375-7.5-7.5-7.5zm0 0"/><path d="m293.824219 292.277344c-4.144531 0-7.5 3.355468-7.5 7.5 0 4.140625 3.355469 7.5 7.5 7.5h11.566406c4.144531 0 7.5-3.359375 7.5-7.5 0-4.144532-3.355469-7.5-7.5-7.5zm0 0"/></svg>