<svg height="512pt" viewBox="-91 0 512 512" width="512pt" xmlns="http://www.w3.org/2000/svg"><path d="m7.5 407.101562v78.828126c0 5.464843 4.386719 9.898437 9.800781 9.898437h284.730469c10.828125 0 19.601562-8.863281 19.601562-19.796875v-68.929688zm0 0" fill="#3a82d0"/><path d="m299.242188 407.101562v68.925782c0 10.9375-8.773438 19.796875-19.601563 19.796875h22.386719c10.832031 0 19.601562-8.859375 19.601562-19.796875v-68.925782zm0 0" fill="#0d73ce"/><path d="m276.257812 470.445312h-258.90625c-5.441406 0-9.851562-4.410156-9.851562-9.847656v-47.207031h278.609375v47.207031c0 5.4375-4.410156 9.847656-9.851563 9.847656zm0 0" fill="#ebeef2"/><path d="m95.21875 504.5h-35.773438c-5.410156 0-9.800781-4.433594-9.800781-9.898438v-73.023437h55.375v73.023437c.003907 5.464844-4.386719 9.898438-9.800781 9.898438zm0 0" fill="#eb5777"/><path d="m301.933594 438.570312h-284.582032c-5.441406 0-9.851562-4.410156-9.851562-9.851562v-411.367188c0-5.441406 4.410156-9.851562 9.851562-9.851562h284.582032c10.878906 0 19.699218 8.820312 19.699218 19.699219v391.667969c0 10.882812-8.820312 19.703124-19.699218 19.703124zm0 0" fill="#5f9eeb"/><path d="m321.628906 27.296875v391.472656c0 10.9375-8.769531 19.796875-19.601562 19.796875h-22.386719c10.828125 0 19.601563-8.859375 19.601563-19.796875v-391.472656c0-10.929687-8.773438-19.796875-19.601563-19.796875h22.386719c10.832031 0 19.601562 8.867188 19.601562 19.796875zm0 0" fill="#3a82d0"/><path d="m61.203125 229.9375h198.351563l5.230468-25.515625c13.550782-66.089844-36.941406-127.984375-104.40625-127.984375s-117.957031 61.894531-104.40625 127.984375zm0 0" fill="#627687"/><path d="m270.617188 239.929688c0 13.9375-11.300782 25.238281-25.238282 25.238281-13.941406 0-25.242187-11.300781-25.242187-25.238281 0-13.941407 11.300781-25.242188 25.242187-25.242188 13.9375 0 25.238282 11.300781 25.238282 25.242188zm0 0" fill="#f8c298"/><path d="m100.617188 239.929688c0 13.9375-11.300782 25.238281-25.238282 25.238281-13.941406 0-25.242187-11.300781-25.242187-25.238281 0-13.941407 11.300781-25.242188 25.242187-25.242188 13.9375 0 25.238282 11.300781 25.238282 25.242188zm0 0" fill="#f8c298"/><path d="m160.378906 324.464844c-34.308594 0-63.25-25.550782-67.5-59.59375l-12.558594-100.523438h160.113282l-12.554688 100.523438c-4.253906 34.042968-33.191406 59.59375-67.5 59.59375zm0 0" fill="#ffd6c0"/><path d="m70.253906 191.164062s34.5625 9.761719 66.308594-13.410156c0 0 70.890625 50.261719 139.867188 1.574219 3.496093-2.46875 3.410156-7.6875-.203126-9.988281l-42.847656-27.3125h-163.125zm0 0" fill="#627687"/><path d="m321.632812 93.828125c-4.140624 0-7.5 3.359375-7.5 7.5v216.339844c0 4.144531 3.359376 7.5 7.5 7.5 4.144532 0 7.5-3.355469 7.5-7.5v-216.339844c0-4.140625-3.355468-7.5-7.5-7.5zm0 0"/><path d="m321.632812 342.828125c-4.140624 0-7.5 3.359375-7.5 7.5v68.539063c0 6.730468-5.472656 12.203124-12.199218 12.203124h-284.582032c-1.296874 0-2.351562-1.054687-2.351562-2.351562v-80.390625c0-4.140625-3.359375-7.5-7.5-7.5s-7.5 3.359375-7.5 7.5v137.601563c0 9.59375 7.761719 17.394531 17.300781 17.394531h27.203125c3 5.179687 8.566406 8.675781 14.945313 8.675781h35.769531c6.378906 0 11.945312-3.496094 14.945312-8.675781h191.867188c14.945312 0 27.101562-12.246094 27.101562-27.296875v-125.699219c0-4.140625-3.355468-7.5-7.5-7.5zm-209.109374 103.242187h166.085937v14.476563c0 1.324219-1.03125 2.398437-2.304687 2.398437h-163.78125zm-95.171876 0h24.792969v16.875h-24.84375c-1.269531 0-2.300781-1.074218-2.300781-2.398437v-14.65625c.769531.105469 1.550781.179687 2.351562.179687zm-2.351562 39.859376v-8.15625c.753906.101562 1.519531.171874 2.300781.171874h24.84375v10.378907h-24.84375c-1.269531 0-2.300781-1.074219-2.300781-2.394531zm80.21875 11.070312h-35.769531c-1.269531 0-2.304688-1.074219-2.304688-2.398438v-48.53125h40.378907v48.53125c0 1.324219-1.035157 2.398438-2.304688 2.398438zm206.8125-8.675781h-189.507812v-10.378907h163.785156c9.539062 0 17.300781-7.804687 17.300781-17.394531v-14.480469h8.324219c4.386718 0 8.527344-1.050781 12.199218-2.902343v32.859375c0 6.78125-5.429687 12.296875-12.101562 12.296875zm0 0"/><path d="m301.933594 0h-284.582032c-9.570312 0-17.351562 7.78125-17.351562 17.351562v298.316407c0 4.144531 3.359375 7.5 7.5 7.5s7.5-3.355469 7.5-7.5v-298.316407c0-1.296874 1.054688-2.351562 2.351562-2.351562h284.582032c6.726562 0 12.199218 5.472656 12.199218 12.199219v41.46875c0 4.140625 3.359376 7.5 7.5 7.5 4.144532 0 7.5-3.359375 7.5-7.5v-41.46875c0-14.996094-12.203124-27.199219-27.199218-27.199219zm0 0"/><path d="m75.378906 272.667969c3.753906 0 7.410156-.648438 10.871094-1.867188 6.8125 35.199219 37.816406 61.164063 74.128906 61.164063s67.320313-25.964844 74.128906-61.167969c3.464844 1.21875 7.128907 1.871094 10.871094 1.871094 18.050782 0 32.738282-14.6875 32.738282-32.738281 0-8.433594-3.203126-16.128907-8.457032-21.9375l2.472656-12.066407c1.097657-5.351562 1.792969-10.785156 2.125-16.191406 2.1875-1.359375 4.359376-2.769531 6.496094-4.277344 3.699219-2.613281 5.84375-6.871093 5.738282-11.390625-.109376-4.5-2.4375-8.632812-6.234376-11.050781l-8.660156-5.519531c-5.558594-24.140625-19.03125-46.128906-38.183594-62.132813-20.386718-17.039062-46.324218-26.421875-73.035156-26.421875-34.421875 0-66.640625 15.292969-88.398437 41.964844-21.757813 26.671875-30.269531 61.304688-23.359375 95.023438l2.472656 12.0625c-5.25 5.808593-8.457031 13.503906-8.457031 21.9375 0 18.050781 14.6875 32.738281 32.742187 32.738281zm-17.742187-32.738281c0-9.785157 7.960937-17.742188 17.742187-17.742188 1.605469 0 3.171875.226562 4.6875.644531l4.0625 32.519531c-2.65625 1.511719-5.644531 2.316407-8.75 2.316407-9.78125 0-17.742187-7.957031-17.742187-17.738281zm102.742187 77.035156c-30.464844 0-56.285156-22.796875-60.058594-53.023438l-7.914062-63.34375c12.527344-.542968 28.554688-3.71875 44.292969-13.847656 7.128906 4.316406 22.277343 12.445312 42.140625 17.332031 10.757812 2.644531 21.390625 3.960938 31.8125 3.957031 5.710937 0 11.351562-.414062 16.917968-1.203124l-7.132812 57.105468c-3.777344 30.226563-29.597656 53.023438-60.058594 53.023438zm85-59.296875c-3.097656 0-6.097656-.792969-8.753906-2.304688l4.0625-32.53125c1.519531-.414062 3.085938-.644531 4.691406-.644531 9.78125 0 17.738282 7.957031 17.738282 17.738281 0 9.785157-7.957032 17.742188-17.738282 17.742188zm12.058594-54.753907-1.253906 6.113282c-3.382813-1.1875-7.019532-1.839844-10.804688-1.839844-.921875 0-1.839844.046875-2.75.121094l.464844-3.730469c5.160156-1.453125 10.226562-3.28125 15.195312-5.445313-.25 1.597657-.527343 3.195313-.851562 4.78125zm-173.832031-82.527343c18.898437-23.164063 46.878906-36.449219 76.773437-36.449219 23.535156 0 45.464844 7.933594 63.417969 22.933594 12.308594 10.289062 21.910156 23.414062 28.039063 38.027344l-14.425782-9.195313c-3.496094-2.226563-8.128906-1.199219-10.355468 2.292969-2.226563 3.492187-1.199219 8.128906 2.292968 10.355468l40.949219 26.101563c-26.15625 17.769531-55.539063 22.878906-87.375 15.183594-24.78125-5.992188-41.859375-17.890625-42.019531-18.003907-2.628906-1.863281-6.15625-1.839843-8.761719.0625-22.496094 16.421876-46.664063 14.589844-56.007813 13.035157-4.085937-.675781-7.949218 2.085937-8.625 6.175781-.679687 4.085938 2.082032 7.945312 6.171876 8.625 1.03125.171875 2.21875.34375 3.539062.503906l.910156 7.273438c-.910156-.078125-1.828125-.121094-2.75-.121094-3.785156 0-7.421875.652344-10.808594 1.839844l-1.253906-6.113282c-6-29.28125 1.394532-59.363281 20.289063-82.527343zm0 0"/><path d="m130.820312 234.277344c-.113281-4.140625-3.550781-7.417969-7.703124-7.292969-4.140626.113281-7.402344 3.5625-7.289063 7.703125l.105469 4c.113281 4.070312 3.449218 7.296875 7.496094 7.296875.066406 0 .136718-.003906.207031-.003906 4.140625-.113281 7.40625-3.5625 7.292969-7.703125zm0 0"/><path d="m197.117188 226.984375c-4.140626.113281-7.402344 3.5625-7.289063 7.703125l.105469 4c.113281 4.070312 3.449218 7.296875 7.496094 7.296875.066406 0 .136718-.003906.207031-.003906 4.140625-.113281 7.40625-3.5625 7.292969-7.703125l-.109376-4c-.113281-4.140625-3.527343-7.402344-7.703124-7.292969zm0 0"/><path d="m187.269531 256.363281c-3.355469-2.429687-8.046875-1.679687-10.472656 1.675781-3.808594 5.261719-9.945313 8.398438-16.417969 8.398438s-12.609375-3.140625-16.417968-8.398438c-2.429688-3.355468-7.117188-4.105468-10.472657-1.675781-3.355469 2.429688-4.105469 7.121094-1.675781 10.472657 6.617188 9.144531 17.296875 14.605468 28.566406 14.605468 11.269532 0 21.945313-5.460937 28.566406-14.605468 2.429688-3.351563 1.679688-8.042969-1.675781-10.472657zm0 0"/><path d="m205.40625 358.804688c0-4.140626-3.355469-7.5-7.5-7.5h-66.679688c-4.144531 0-7.5 3.359374-7.5 7.5 0 4.144531 3.355469 7.5 7.5 7.5h66.679688c4.144531 0 7.5-3.355469 7.5-7.5zm0 0"/><path d="m151.226562 374.992188c-4.140624 0-7.5 3.359374-7.5 7.5 0 4.140624 3.359376 7.5 7.5 7.5h26.683594c4.140625 0 7.5-3.359376 7.5-7.5 0-4.140626-3.359375-7.5-7.5-7.5zm0 0"/></svg>