<svg id="Capa_1" enable-background="new 0 0 512 512" height="20" viewBox="0 0 512 512" width="20" xmlns="http://www.w3.org/2000/svg"><path d="m216.982 504.498h-80.407c0-48.518 39.772-81.458 39.772-81.458h159.306s39.772 32.94 39.772 81.458h-80.407l-39.018-19.51z" fill="#00c071"/><path d="m196.347 423.04h-20s-39.772 32.94-39.772 81.458h20c0-48.518 39.772-81.458 39.772-81.458z" fill="#00a45b"/><path d="m410.898 70.324v-23.616c0-21.653-17.553-39.206-39.206-39.206-15.823 0-29.449 9.376-35.641 22.874-2.24 4.883-7.838 7.204-12.92 5.463-21.053-7.213-43.633-11.134-67.131-11.134s-46.078 3.921-67.131 11.134c-5.082 1.741-10.68-.579-12.92-5.463-6.192-13.498-19.818-22.874-35.641-22.874-21.653 0-39.206 17.553-39.206 39.206v23.618c0 14.394-4.472 28.457-12.918 40.113-24.928 34.401-39.543 76.763-39.287 122.555.637 114.078 96.368 207.696 210.434 205.897 112.845-1.779 203.775-93.811 203.775-207.08 0-45.18-14.475-86.974-39.032-121.015-8.51-11.796-13.176-25.927-13.176-40.472z" fill="#36d39a"/><path d="m68.897 232.994c-.256-45.792 14.359-88.153 39.287-122.555 8.446-11.656 12.918-25.719 12.918-40.113v-23.618c0-18.181 12.378-33.467 29.165-37.902-3.183-.835-6.514-1.303-9.959-1.303-21.653 0-39.206 17.553-39.206 39.206v23.618c0 14.395-4.472 28.458-12.918 40.113-24.928 34.401-39.543 76.763-39.287 122.555.638 114.078 96.368 207.696 210.434 205.897 2.29-.036 4.568-.123 6.839-.233-108.172-5.268-196.66-96.005-197.273-205.665z" fill="#00c071"/><path d="m100.141 189.169c1.808-5.275 3.983-10.252 6.477-14.94 24.874-46.708 82.469-65.244 149.382-65.244s124.508 18.536 149.382 65.244c3.964 7.46 7.103 15.626 9.318 24.566l-33.607 33.607h-245.016z" fill="#4f4c5f"/><path d="m270.995 109.321c-2.343-.103-12.479-.334-14.929-.335-.022 0-.044-.001-.066-.001-66.913 0-124.508 18.536-149.382 65.244-2.548 4.79-4.717 9.808-6.477 14.94l24.006 28.881c.948-10.471 2.967-20.098 5.994-28.881 1.808-5.275 3.983-10.251 6.477-14.94 22.993-43.176 73.954-62.267 134.377-64.908z" fill="#423e4f"/><path d="m418.484 231.814c0 89.591-72.883 162.484-162.484 162.484s-162.484-72.892-162.484-162.484c0-15.963 2.315-30.139 6.626-42.645 116.124 20.89 185.918-45.188 185.918-45.188s50.354 54.814 128.64 54.814c2.473 10.033 3.784 21.02 3.784 33.019z" fill="#ffd3bc"/><path d="m123.516 231.814c0-14.481 1.923-27.477 5.495-39.104-9.274-.608-18.897-1.747-28.869-3.541-.878 2.547-1.651 5.183-2.361 7.87-2.954 11.181-4.265 23.117-4.265 34.775 0 89.591 72.883 162.484 162.484 162.484 4.992 0 9.998-.199 14.966-.696.011-.001.021-.002.032-.003-82.592-7.596-147.482-77.251-147.482-161.785z" fill="#ffbe9c"/><path d="m352.031 281.241h-22.458c-4.142 0-7.5-3.358-7.5-7.5s3.358-7.5 7.5-7.5h22.458c4.142 0 7.5 3.358 7.5 7.5s-3.358 7.5-7.5 7.5z" fill="#ff889e"/><path d="m182.427 281.241h-22.458c-4.142 0-7.5-3.358-7.5-7.5s3.358-7.5 7.5-7.5h22.458c4.142 0 7.5 3.358 7.5 7.5s-3.358 7.5-7.5 7.5z" fill="#ff889e"/><path d="m295.018 504.498h-78.037c0-21.547 17.471-39.018 39.018-39.018s39.019 17.471 39.019 39.018z" fill="#f8e86a"/><path d="m348.303 249.505v-16.489c0-4.142-3.358-7.5-7.5-7.5s-7.5 3.358-7.5 7.5v16.489c0 4.142 3.358 7.5 7.5 7.5s7.5-3.358 7.5-7.5z"/><path d="m178.697 249.505v-16.489c0-4.142-3.358-7.5-7.5-7.5s-7.5 3.358-7.5 7.5v16.489c0 4.142 3.358 7.5 7.5 7.5s7.5-3.358 7.5-7.5z"/><path d="m265.521 261.163c-2.303 2.635-5.773 4.147-9.521 4.147-3.747 0-7.217-1.511-9.521-4.147-2.725-3.118-7.463-3.437-10.583-.711-3.119 2.726-3.437 7.464-.711 10.583 5.152 5.894 12.739 9.275 20.814 9.275 8.076 0 15.662-3.38 20.815-9.275 2.726-3.119 2.407-7.857-.711-10.583s-7.856-2.408-10.582.711z"/><path d="m147.807 63.848v-17.883c0-4.142-3.358-7.5-7.5-7.5s-7.5 3.358-7.5 7.5v17.883c0 4.142 3.358 7.5 7.5 7.5s7.5-3.358 7.5-7.5z"/><path d="m379.193 63.848v-17.883c0-4.142-3.358-7.5-7.5-7.5s-7.5 3.358-7.5 7.5v17.883c0 4.142 3.358 7.5 7.5 7.5s7.5-3.358 7.5-7.5z"/><path d="m256 79.273c8.576 0 16.63-3.587 22.097-9.842 2.726-3.119 2.408-7.857-.711-10.583s-7.857-2.408-10.583.71c-2.619 2.996-6.557 4.714-10.804 4.714s-8.185-1.718-10.803-4.714c-2.726-3.119-7.464-3.437-10.583-.711s-3.437 7.464-.711 10.583c5.468 6.256 13.522 9.843 22.098 9.843z"/><path d="m99.995 170.707c-2.714 5.104-5.048 10.488-6.951 16.037-4.664 13.537-7.029 28.7-7.029 45.07 0 93.73 76.255 169.986 169.986 169.986 43.39 0 84.73-16.416 116.405-46.225 3.016-2.839 3.16-7.586.322-10.602-2.839-3.016-7.586-3.161-10.602-.322-28.882 27.18-66.571 42.149-106.126 42.149-85.459 0-154.986-69.526-154.986-154.986 0-12.29 1.46-23.752 4.346-34.168.949.146 1.886.272 2.829.407 17.708 2.552 35.731 3.277 53.582 2.064 43.914-2.984 89.083-18.242 123.892-45.97.1-.08 8.241 7.247 9.003 7.871 31.893 26.121 72.492 42.866 113.889 44.168.031.001.061.003.092.005 1.553 8.037 2.338 16.629 2.338 25.622 0 33.166-10.38 64.825-30.018 91.555-2.452 3.338-1.734 8.032 1.604 10.484 3.337 2.453 8.032 1.734 10.484-1.604 21.543-29.323 32.93-64.053 32.93-100.436 0-12.327-1.347-24.04-4.005-34.823-2.313-9.335-5.669-18.177-9.978-26.288-12.69-23.83-33.796-41.852-62.732-53.565-25.662-10.387-57.043-15.654-93.271-15.654s-67.608 5.267-93.27 15.654c-28.935 11.715-50.041 29.737-62.734 53.571zm156.005-54.223c91.028 0 127.878 33.319 142.76 61.264 2.223 4.184 4.156 8.606 5.783 13.219-.01-.001-.021-.001-.032-.002-.253-.017-.502-.039-.754-.056-33.069-2.307-64.838-15.099-91.541-34.509-7.228-5.254-14.564-10.911-20.639-17.501-1.342-1.455-3.275-2.345-5.255-2.415-1.994-.07-3.969.678-5.418 2.049-17.954 16.998-43.033 28.512-66.258 36.128-33.262 10.908-68.881 13.509-103.489 8.672-.203-.028-.409-.062-.612-.091.841-1.865 1.74-3.698 2.693-5.489 14.884-27.95 51.735-61.269 142.762-61.269z"/><path d="m375.426 512c4.142 0 7.5-3.358 7.5-7.5 0-37.499-21.643-65.906-34.055-79.115 22.055-10.599 42.347-25.034 60.009-42.96 39.806-40.402 61.729-93.89 61.729-150.614 0-45.358-13.987-88.722-40.45-125.404-7.693-10.665-11.759-23.142-11.759-36.085v-23.616c-.001-25.754-20.953-46.706-46.707-46.706-18.2 0-34.866 10.695-42.459 27.248-.622 1.355-2.201 1.998-3.672 1.494-22.349-7.657-45.753-11.539-69.562-11.539s-47.213 3.882-69.562 11.539c-1.473.504-3.051-.138-3.673-1.495-7.593-16.552-24.259-27.247-42.458-27.247-25.754 0-46.706 20.952-46.706 46.706v23.618c0 12.988-3.974 25.338-11.491 35.713-12.294 16.965-22.005 35.566-28.863 55.285-1.361 3.913.708 8.187 4.62 9.548s8.187-.708 9.547-4.62c6.377-18.335 15.407-35.632 26.842-51.411 9.385-12.952 14.345-28.344 14.345-44.515v-23.618c0-17.483 14.223-31.706 31.706-31.706 12.354 0 23.669 7.262 28.824 18.501 3.847 8.388 13.377 12.443 22.168 9.431 20.78-7.119 42.549-10.729 64.7-10.729s43.92 3.61 64.701 10.729c8.791 3.012 18.321-1.042 22.168-9.431 5.156-11.239 16.471-18.501 28.825-18.501 17.483 0 31.706 14.223 31.706 31.706v23.616c0 16.112 5.046 31.625 14.594 44.86 24.608 34.111 37.615 74.441 37.615 116.628 0 52.759-20.39 102.509-57.414 140.086-28.39 28.815-65.983 48.929-106.039 56.26-.014.003-.028.005-.042.008-19.092 3.95-39.235 4.157-58.557 1.961-43.958-5.007-85.217-25.239-116.778-56.132-38.641-37.826-60.085-87.914-60.382-141.041-.077-13.723 1.25-27.452 3.943-40.806.819-4.061-1.809-8.016-5.869-8.835-4.063-.819-8.016 1.809-8.835 5.869-2.896 14.356-4.321 29.111-4.239 43.855.319 57.162 23.364 111.028 64.89 151.677 17.097 16.736 36.373 30.281 57.119 40.38-12.365 13.081-34.33 41.634-34.33 79.408 0 4.142 3.358 7.5 7.5 7.5zm-149.99-15.197c3.509-13.726 16.412-23.822 30.581-23.822 4.096 0 8.235.821 12.019 2.393 9.193 3.819 16.194 11.96 18.575 21.626h-61.22c.015-.066.028-.132.045-.197zm142.14.197h-27.399v-22.329c0-4.142-3.358-7.5-7.5-7.5s-7.5 3.358-7.5 7.5v22.329h-23.262c-.072-.439-.159-.872-.243-1.307-4.136-21.525-23.732-37.712-45.672-37.712-16.608 0-32.212 9.198-40.447 23.574-2.72 4.748-4.587 10.043-5.468 15.444h-23.262v-22.329c0-4.142-3.358-7.5-7.5-7.5s-7.5 3.358-7.5 7.5v22.33h-27.399c3.07-32.956 25.493-57.464 33.704-65.419 17.565 6.957 36.012 11.537 54.962 13.587 20.064 2.171 40.376 1.433 60.256-1.99 13.999-2.446 27.636-6.26 40.751-11.377 8.399 8.189 30.437 32.548 33.479 65.199z"/></svg>